<?xml version="1.0" encoding="UTF-8" standalone="no"?>
<!DOCTYPE svg  PUBLIC '-//W3C//DTD SVG 1.1//EN'  'http://www.w3.org/Graphics/SVG/1.1/DTD/svg11.dtd'>
<svg version="1.1" xmlns="http://www.w3.org/2000/svg">
<defs>
<font id="Imago-MediumItalic" horiz-adv-x="583">
<font-face ascent="800" x-height="500" font-family="Imago" underline-position="-150" descent="-200" font-weight="700" font-style="italic" bbox="-164 -252 1026 947" cap-height="706" underline-thickness="50" unicode-range="U+0020-FB02" units-per-em="1000" panose-1="2 11 6 0 6 0 0 2 0 4" slope="-14"/>
<missing-glyph/>
<glyph horiz-adv-x="271" unicode=" " glyph-name="space"/>
<glyph d="M218 147l-37 -147h-172l38 147h171zM352 648l-125 -437h-154l101 437h178z" horiz-adv-x="292" unicode="!" glyph-name="exclam"/>
<glyph d="M263 743l-112 -308h-43l35 308h120zM443 743l-111 -308h-43l35 308h119z" horiz-adv-x="350" unicode='&quot;' glyph-name="quotedbl"/>
<glyph d="M424 410h-107l-30 -103h106zM670 500l-22 -90h-133l-30 -103h132l-23 -90h-136l-66 -217h-91l65 217h-106l-65 -217h-92l65 217h-129l23 90h133l30 103h-131l23 90h135l61 206h93l-62 -206h106l61 206h92l-61 -206h128z" horiz-adv-x="667" unicode="#" glyph-name="numbersign"/>
<glyph d="M116 -123l29 114q-62 6 -94.5 13.5t-73.5 24.5l28 108q113 -53 207 -53q22 0 45 4.5t47.5 24t24.5 52.5q0 29 -20.5 48.5t-53.5 38.5l-45 25q-67 37 -103.5 77.5t-36.5 100.5q0 95 78 149.5t177 54.5l26 100h80l-26 -103q74 -7 138 -36l-25 -96q-102 45 -184 45 q-42 0 -75.5 -18.5t-33.5 -53.5q0 -45 78 -86l62 -33q125 -65 125 -173q0 -95 -78 -156q-69 -55 -186 -61l-29 -111h-81z" horiz-adv-x="521" unicode="$" glyph-name="dollar"/>
<glyph d="M736 648l-426 -648h-73l427 648h72zM812 346q0 23 -12.5 32.5t-26.5 9.5q-39 0 -63 -57q-9 -23 -31.5 -114.5t-22.5 -119.5q0 -24 12 -33.5t27 -9.5q29 0 43.5 22t32.5 81q41 144 41 189zM924 332q0 -50 -28 -153q-26 -96 -76 -140.5t-134 -44.5q-142 0 -142 118 q0 43 27 142q29 102 66 139q54 54 145 54q77 0 109.5 -33t32.5 -82zM319 552q0 23 -12.5 32.5t-26.5 9.5q-39 0 -63 -57q-9 -23 -31.5 -114.5t-22.5 -119.5q0 -24 12 -33.5t27 -9.5q29 0 43.5 22t32.5 81q41 144 41 189zM431 538q0 -50 -28 -153q-26 -96 -76 -140.5 t-134 -44.5q-142 0 -142 118q0 43 27 142q29 102 66 139q54 54 145 54q77 0 109.5 -33t32.5 -82z" horiz-adv-x="951" unicode="%" glyph-name="percent"/>
<glyph d="M400 103l-125 259q-55 -21 -79 -51t-24 -78q0 -67 40.5 -110t104.5 -43q38 0 83 23zM402 457q109 41 109 127q0 32 -15.5 49.5t-44.5 17.5q-34 0 -55 -25.5t-21 -65.5q0 -41 27 -103zM572 366h129l-15 -63q-15 -65 -39.5 -107.5t-76.5 -81.5l60 -114h-183l-19 43 q-88 -53 -192 -53q-106 0 -165.5 51.5t-59.5 142.5q0 90 56.5 144t182.5 89q-33 69 -33 119q0 84 62 134t167 50q86 0 138.5 -39t52.5 -104q0 -60 -43 -95t-167 -79l93 -190q25 42 52 153z" horiz-adv-x="711" unicode="&amp;" glyph-name="ampersand"/>
<glyph d="M263 743l-112 -308h-43l35 308h120z" horiz-adv-x="169" unicode="&apos;" glyph-name="quotesingle"/>
<glyph d="M526 705l-25 -94h-23q-46 0 -79 -13t-54.5 -39.5t-34 -52t-24.5 -64.5q-25 -77 -54 -191.5t-29 -172.5q0 -37 12 -62.5t35 -38t40 -17.5t41 -9l-24 -93q-116 0 -188 51.5t-72 156.5q0 79 37 225t69 221q21 49 45 82.5t61 60t91 39t128 12.5q36 0 48 -1z" horiz-adv-x="417" unicode="(" glyph-name="parenleft"/>
<glyph d="M-108 -140l25 94h23q46 0 79 13t54.5 39.5t34 52t24.5 64.5q25 77 54 191.5t29 172.5q0 37 -12 62.5t-35 38t-40 17.5t-41 9l24 93q116 0 188 -51.5t72 -156.5q0 -79 -37 -225t-69 -221q-21 -49 -45 -82.5t-61 -60t-91 -39t-128 -12.5q-14 0 -29 0.5t-19 0.5z" horiz-adv-x="417" unicode=")" glyph-name="parenright"/>
<glyph d="M451 560l-113 -40l88 -60l-66 -75l-76 73l-24 -112l-88 7l35 111l-108 -51l-25 82l114 39l-89 61l66 75l76 -74l23 113l88 -6l-35 -113l109 51z" horiz-adv-x="396" unicode="*" glyph-name="asterisk"/>
<glyph d="M657 375l-29 -114h-193l-54 -213h-153l53 213h-193l29 114h193l53 209h153l-52 -209h193z" horiz-adv-x="724" unicode="+" glyph-name="plus"/>
<glyph d="M179 145l-37 -142l-122 -160h-97l124 157h-80l38 145h174z" horiz-adv-x="250" unicode="," glyph-name="comma"/>
<glyph d="M397 321l-32 -125h-355l32 125h355z" horiz-adv-x="417" unicode="-" glyph-name="hyphen"/>
<glyph d="M178 147l-38 -147h-172l38 147h172z" horiz-adv-x="250" unicode="." glyph-name="period"/>
<glyph d="M520 706l-424 -706h-159l426 706h157z" horiz-adv-x="417" unicode="/" glyph-name="slash"/>
<glyph d="M185 140q0 -36 18 -52t43 -16q45 0 68 35.5t51 131.5q21 68 39.5 151.5t18.5 117.5q0 35 -18.5 51t-43.5 16q-54 0 -86 -67q-23 -49 -56.5 -186t-33.5 -182zM582 490q0 -69 -40 -221q-38 -144 -105 -209q-72 -69 -204 -69q-207 0 -207 169q0 73 44 230q13 47 26.5 81 t38.5 71t56 60.5t79.5 38.5t110.5 15q84 0 142.5 -39.5t58.5 -126.5z" unicode="0" glyph-name="zero"/>
<glyph d="M332 0h-170l129 511h-141l26 100q178 16 324 50z" unicode="1" glyph-name="one"/>
<glyph d="M483 0h-497l27 100q15 15 32 30.5t37 31.5t34 26.5t38.5 29t34.5 26.5l44 34q70 53 110 90q74 67 74 131q0 25 -15.5 46.5t-54.5 21.5q-29 0 -49.5 -10.5t-32.5 -33t-17 -38t-12 -44.5l-3 -13h-166q8 53 26 92t51 71t88.5 48.5t133.5 16.5q115 0 169 -44t54 -116 q0 -68 -46 -123.5t-121 -108.5l-44 -31q-32 -22 -90.5 -64.5t-69.5 -50.5l297 3z" unicode="2" glyph-name="two"/>
<glyph d="M195 293l22 86h52q67 0 104 32t37 95q0 31 -16.5 50t-49.5 19q-75 0 -98 -102h-163q36 183 274 183q110 0 163 -39.5t53 -107.5q0 -50 -28 -90q-50 -72 -172 -83q59 -3 103.5 -35t44.5 -100q0 -53 -32 -103q-72 -107 -252 -107q-23 0 -44 1.5t-51 6.5t-54 15.5t-46 26.5 t-34 42.5t-12 60.5q0 23 8 52h163q-6 -12 -6 -44q0 -26 18 -49.5t60 -23.5q35 0 59 17t34 42.5t13.5 42.5t3.5 28q0 27 -10.5 45t-30.5 26t-38.5 10.5t-43.5 2.5h-31z" unicode="3" glyph-name="three"/>
<glyph d="M546 238l-29 -113h-71l-32 -125h-153l32 125h-302l25 95q95 124 173 234q45 64 133 194h170q-40 -54 -163 -215t-152 -195h152l50 194l149 9l-53 -203h71z" unicode="4" glyph-name="four"/>
<glyph d="M568 534h-287l-43 -143q59 41 133 41q85 0 129.5 -44t44.5 -117q0 -67 -32 -130.5t-81 -97.5q-75 -52 -199 -52q-227 0 -227 151q0 16 4 36h173q-4 -16 -4 -33q0 -15 4 -29.5t22 -28.5t47 -14q41 0 70 36t39.5 77t10.5 77q0 35 -17.5 57t-52.5 22q-59 0 -90 -65h-154 l108 371h431z" unicode="5" glyph-name="five"/>
<glyph d="M369 263q0 31 -16.5 50.5t-50.5 19.5q-55 0 -85 -56q-13 -24 -22.5 -62.5t-9.5 -66.5q0 -76 69 -76q52 0 79 51q14 26 25 68.5t11 71.5zM594 478h-162q5 35 5 37q0 30 -19.5 45.5t-48.5 15.5q-25 0 -45.5 -12.5t-33 -29t-24.5 -46t-18 -48.5t-14 -52l-6 -24q65 49 145 49 q79 0 120.5 -39t41.5 -112q0 -46 -17 -96t-46 -85q-73 -90 -227 -90q-218 0 -218 172q0 86 41 223q40 136 98 192q83 78 231 78q23 0 48.5 -3.5t65 -15.5t64.5 -42.5t25 -76.5q0 -18 -6 -40z" unicode="6" glyph-name="six"/>
<glyph d="M225 0h-190q290 418 362 527h-322l31 121h500l-30 -118q-65 -97 -184.5 -278.5t-166.5 -251.5z" unicode="7" glyph-name="seven"/>
<glyph d="M178 148q0 -25 8.5 -42t22.5 -24t24 -9.5t20 -2.5q32 0 56 18.5t35.5 47t16.5 53t5 45.5q0 30 -18.5 49.5t-54.5 19.5q-43 0 -70.5 -30.5t-36 -62.5t-8.5 -62zM258 443q0 -30 17.5 -46.5t47.5 -16.5q31 0 50 12q27 17 40.5 56t13.5 67q0 63 -67 63q-30 0 -51.5 -16.5 t-31.5 -40.5t-14.5 -43.5t-4.5 -34.5zM228 345q-124 5 -124 116q0 75 57 130q67 65 202 65q119 0 170 -40t51 -104q0 -69 -43 -114q-50 -54 -144 -59q131 -10 131 -127q0 -28 -7 -55.5t-26.5 -58t-49 -54t-80.5 -38.5t-116 -15q-234 0 -234 157q0 73 56 135t157 62z" unicode="8" glyph-name="eight"/>
<glyph d="M423 502q0 42 -21.5 58t-47.5 16q-55 0 -85 -61q-31 -62 -31 -131t67 -69q55 0 84 53q13 23 23.5 65t10.5 69zM374 278q-1 -1 -9 -6.5t-12.5 -8t-14.5 -7.5t-19.5 -8t-22.5 -6.5t-29 -5t-34 -1.5q-45 0 -78 13.5t-48.5 30t-24.5 41t-10.5 37.5t-1.5 27q0 104 59 178 q77 94 238 94q213 0 213 -178q0 -73 -37 -204q-35 -127 -83 -184q-80 -99 -239 -99q-26 0 -49.5 2t-56.5 10.5t-56 23t-40 42.5t-17 66q0 15 5 35l168 -1q-4 -18 -4 -32q0 -65 66 -65q53 0 80 43.5t57 162.5z" unicode="9" glyph-name="nine"/>
<glyph d="M220 147l-38 -147h-172l39 147h171zM311 500l-37 -147h-172l38 147h171z" horiz-adv-x="292" unicode=":" glyph-name="colon"/>
<glyph d="M221 145l-36 -142l-122 -160h-98l124 157h-79l37 145h174zM310 500l-38 -147h-172l38 147h172z" horiz-adv-x="292" unicode=";" glyph-name="semicolon"/>
<glyph d="M675 620l-39 -148l-362 -148l286 -150l-37 -141l-406 227l34 135z" horiz-adv-x="724" unicode="&lt;" glyph-name="less"/>
<glyph d="M622 260l-31 -123h-526l32 123h525zM676 476l-31 -123h-525l31 123h525z" horiz-adv-x="724" unicode="=" glyph-name="equal"/>
<glyph d="M635 388l-35 -134l-523 -226l38 148l362 148l-285 151l36 141z" horiz-adv-x="724" unicode="&gt;" glyph-name="greater"/>
<glyph d="M272 213h-158l34 132h19q92 0 149.5 40.5t57.5 113.5q0 33 -17.5 54t-50.5 21q-18 0 -32 -7.5t-22.5 -16.5t-15.5 -26t-10.5 -27.5t-7.5 -29.5l-2 -10h-164q11 60 35 101t61.5 61.5t77.5 28.5t93 8q124 0 175.5 -45.5t51.5 -114.5q0 -53 -31 -102q-62 -98 -228 -121z M266 146l-38 -146h-172l38 146h172z" horiz-adv-x="521" unicode="?" glyph-name="question"/>
<glyph d="M528 345q0 93 -68 93q-53 0 -97.5 -69t-44.5 -138q0 -37 17.5 -58t46.5 -21q51 0 98.5 60.5t47.5 132.5zM758 93l45 -59q-93 -78 -185 -118t-206 -40q-164 0 -264 94.5t-100 249.5q0 139 64 252t175 177t246 64t218 -78t83 -204q0 -140 -84 -251.5t-183 -111.5 q-38 0 -59.5 20.5t-21.5 57.5q-64 -76 -140 -76q-58 0 -92.5 40t-34.5 107q0 111 74.5 207t168.5 96q73 0 104 -74l16 52h86l-62 -210q-22 -75 -22 -104q0 -32 22 -32q15 0 37 16t40 42q71 103 71 212q0 101 -62.5 160.5t-168.5 59.5q-168 0 -280.5 -121.5t-112.5 -294.5 q0 -127 78.5 -202t212.5 -75q91 0 179 38.5t158 105.5z" horiz-adv-x="868" unicode="@" glyph-name="at"/>
<glyph d="M287 336h144q-1 128 -4 250zM617 0h-180q-7 218 -7 230h-198l-128 -230h-177l406 706h258z" horiz-adv-x="688" unicode="A" glyph-name="A"/>
<glyph d="M276 411h46q52 0 86 9.5t58 42.5t24 75q0 50 -39 67q-20 9 -83 9h-39zM194 93h62q40 0 62 2t50.5 15t47.5 39q27 37 27 83q0 55 -42 78q-25 13 -103 13h-44zM-7 0l183 706h268q70 0 109.5 -9t65.5 -32q44 -39 44 -104q0 -77 -49 -125.5t-106 -59.5q115 -29 115 -144 q0 -52 -25.5 -101.5t-67.5 -81.5q-31 -22 -76.5 -33.5t-77.5 -13.5t-84 -2h-299z" horiz-adv-x="667" unicode="B" glyph-name="B"/>
<glyph d="M697 482h-178q6 32 6 54q0 37 -21 64.5t-72 27.5q-97 0 -148 -145q-28 -77 -47 -162t-19 -130q0 -111 101 -111q50 0 87 38q30 30 57 107h182q-17 -58 -37 -94q-84 -146 -287 -146q-128 0 -204.5 52.5t-76.5 169.5q0 68 26 172q48 190 134 266q87 76 240 76 q130 0 195 -48q67 -48 67 -140q0 -22 -5 -51z" horiz-adv-x="687" unicode="C" glyph-name="C"/>
<glyph d="M200 94h64q45 0 73 5t58 24q52 33 85 105q10 21 22.5 56.5t27 99.5t14.5 116q0 70 -49 97q-28 16 -104 16h-57zM-7 0l183 706h289q79 0 132.5 -17.5t80 -50t37 -68.5t10.5 -84q0 -36 -9 -91.5t-30.5 -131.5t-70 -142t-115.5 -94q-65 -27 -181 -27h-326z" horiz-adv-x="729" unicode="D" glyph-name="D"/>
<glyph d="M611 706l-29 -111h-254l-44 -173h240l-29 -111h-240l-52 -200h284l-29 -111h-465l183 706h435z" horiz-adv-x="542" unicode="E" glyph-name="E"/>
<glyph d="M600 706l-29 -111h-240l-51 -196h229l-29 -111h-228l-75 -288h-184l183 706h424z" horiz-adv-x="500" unicode="F" glyph-name="F"/>
<glyph d="M700 374l-99 -374h-167l15 53q-60 -68 -183 -68q-95 0 -160.5 52t-65.5 160q0 64 27 177q45 190 133 268q90 79 246 79q41 0 76.5 -4.5t73 -17t64 -33t43.5 -55t17 -79.5q0 -23 -5 -51h-177q5 27 5 51q0 30 -11 51t-28.5 29.5t-31.5 11.5t-28 3q-52 0 -92.5 -34 t-75.5 -129q-21 -56 -39 -142.5t-18 -124.5q0 -118 112 -118q73 0 115 45q28 31 53 121l8 30h-133l27 99h299z" horiz-adv-x="729" unicode="G" glyph-name="G"/>
<glyph d="M754 706l-182 -706h-185l82 316h-210l-82 -316h-184l183 706h184l-73 -279h211l72 279h184z" horiz-adv-x="708" unicode="H" glyph-name="H"/>
<glyph d="M360 706l-183 -706h-185l183 706h185z" horiz-adv-x="313" unicode="I" glyph-name="I"/>
<glyph d="M490 706l-114 -440q-15 -60 -29.5 -100t-37 -76.5t-51 -57.5t-70.5 -33t-97 -12q-80 0 -150 29l32 108q51 -23 87 -23q27 0 46 8.5t31.5 19.5t24 40t17.5 50.5t19 70.5l107 416h185z" horiz-adv-x="437" unicode="J" glyph-name="J"/>
<glyph d="M749 706l-287 -268l136 -438h-187l-91 302l-97 -91l-54 -211h-176l183 706h176l-75 -288l284 288h188z" horiz-adv-x="646" unicode="K" glyph-name="K"/>
<glyph d="M487 112l-29 -112h-465l183 706h184l-154 -594h281z" horiz-adv-x="542" unicode="L" glyph-name="L"/>
<glyph d="M803 0h-170q136 529 155 592l-318 -592h-143q-15 531 -15 590q-19 -76 -154 -590h-167l191 706h265q9 -353 9 -394q0 -14 -0.5 -36t-1 -39t-0.5 -19q16 36 80.5 158t121.5 226l56 104h272z" horiz-adv-x="938" unicode="M" glyph-name="M"/>
<glyph d="M591 0h-202q-110 456 -114 497l-121 -497h-161l186 706h207q106 -436 113 -493q4 24 33.5 147.5t57.5 234.5l27 111h158z" horiz-adv-x="729" unicode="N" glyph-name="N"/>
<glyph d="M549 517q0 32 -11.5 55t-30.5 33.5t-36 15t-34 4.5q-35 0 -62.5 -14t-45.5 -40t-25.5 -41t-16.5 -39q-25 -67 -45.5 -156t-20.5 -139q0 -115 108 -115q33 0 59 13t44.5 33.5t35 58t28.5 75t26 95.5q27 105 27 161zM726 492q0 -69 -24 -169q-10 -42 -19 -72t-25 -68 t-34 -64t-46 -53t-61.5 -43.5t-80.5 -27t-103 -10.5q-130 0 -211.5 56t-81.5 175q0 21 6.5 66.5t21.5 115.5t50.5 139.5t83.5 110.5q86 72 237 72q142 0 214.5 -62.5t72.5 -165.5z" horiz-adv-x="729" unicode="O" glyph-name="O"/>
<glyph d="M268 350h47q62 0 90 12q41 18 65 67t24 97q0 53 -36 74q-21 13 -84 13h-38zM177 0h-184l183 706h285q117 0 164 -43t47 -118q0 -96 -39 -159.5t-84 -91.5q-61 -37 -200 -37h-105z" horiz-adv-x="625" unicode="P" glyph-name="P"/>
<glyph d="M546 518q0 34 -12.5 58t-32 33.5t-33.5 13t-26 3.5q-58 0 -98 -43t-73 -145q-11 -34 -28.5 -112.5t-17.5 -130.5q0 -10 0.5 -19.5t6.5 -28.5t16 -32t31 -23.5t50 -10.5q54 0 94 42q42 45 82.5 177.5t40.5 217.5zM650 -107h-152v13q0 76 -66 94q-62 -14 -108 -14 q-56 0 -103 11.5t-88.5 36.5t-65 72t-23.5 112q0 54 19 146.5t62 177.5q89 179 307 179q43 0 81.5 -6t78 -22t67.5 -41t46 -68t18 -98q0 -105 -47 -243t-116 -188q90 -38 90 -135v-27z" horiz-adv-x="729" unicode="Q" glyph-name="Q"/>
<glyph d="M275 390h71q78 0 110 39q37 47 37 104q0 46 -32 67q-22 14 -87 14h-41zM176 706h286q115 0 166 -40q49 -40 49 -113q0 -57 -29.5 -107.5t-80.5 -76.5q-34 -17 -88 -24q103 -16 103 -179v-63q0 -73 26 -103h-186q-14 16 -17.5 37t-3.5 65v48q0 105 -41 131q-26 17 -79 17 h-30l-77 -298h-181z" horiz-adv-x="667" unicode="R" glyph-name="R"/>
<glyph d="M622 518h-158q2 10 2 25q0 11 -2 21.5t-9.5 27.5t-28 27.5t-51.5 10.5q-42 0 -72 -24t-30 -65q0 -33 21.5 -54.5t79.5 -48.5l51 -24q65 -30 103 -72t38 -118q0 -101 -84 -172q-79 -66 -210 -66q-60 0 -106.5 8t-87 27t-62.5 56t-22 90q0 22 4 45q144 -3 169 -3 q-2 -18 -2 -32q0 -45 27.5 -71.5t82.5 -26.5q46 0 78 29t32 74q0 39 -22.5 61.5t-82.5 51.5l-50 24q-30 15 -49.5 27t-42 33t-34 51.5t-11.5 68.5q0 64 39 119q73 103 248 103q116 0 181 -40t65 -122q0 -19 -4 -41z" horiz-adv-x="604" unicode="S" glyph-name="S"/>
<glyph d="M654 706l-29 -111h-173l-154 -595h-185l154 595h-184l29 111h542z" horiz-adv-x="542" unicode="T" glyph-name="T"/>
<glyph d="M761 706l-119 -458q-38 -147 -110 -204.5t-228 -57.5q-49 0 -90.5 7t-82.5 25t-65 55.5t-24 91.5q0 29 19 115l110 426h183l-107 -416q-21 -80 -21 -117q0 -33 22.5 -57t75.5 -24q58 0 89 38t57 140l113 436h178z" horiz-adv-x="708" unicode="U" glyph-name="U"/>
<glyph d="M736 706l-377 -706h-241q-7 688 -7 706h182q-10 -478 -13 -560l275 560h181z" horiz-adv-x="625" unicode="V" glyph-name="V"/>
<glyph d="M713 0h-230q19 405 27 472q-26 -64 -221 -472h-230l56 706h175q-48 -482 -59 -565q27 62 264 565h153q-23 -503 -30 -563l239 563h169z" horiz-adv-x="917" unicode="W" glyph-name="W"/>
<glyph d="M724 706l-291 -330l132 -376h-186l-77 237l-189 -237h-192l326 378l-119 328h185l65 -201l159 201h187z" horiz-adv-x="625" unicode="X" glyph-name="X"/>
<glyph d="M727 706l-347 -464l-62 -242h-182l62 242l-102 464h182l57 -304l213 304h179z" horiz-adv-x="604" unicode="Y" glyph-name="Y"/>
<glyph d="M665 706l-27 -104l-440 -490h356l-29 -112h-578l25 97l448 499h-326l29 110h542z" horiz-adv-x="604" unicode="Z" glyph-name="Z"/>
<glyph d="M485 706l-23 -88h-147l-175 -671h148l-22 -88h-300l219 847h300z" horiz-adv-x="375" unicode="[" glyph-name="bracketleft"/>
<glyph d="M397 0h-141l-135 706h141z" horiz-adv-x="479" unicode="\" glyph-name="backslash"/>
<glyph d="M412 706l-220 -847h-300l23 88h148l174 671h-148l23 88h300z" horiz-adv-x="375" unicode="]" glyph-name="bracketright"/>
<glyph d="M643 283h-151l-50 281l-195 -281h-159l315 423h138z" horiz-adv-x="724" unicode="^" glyph-name="asciicircum"/>
<glyph d="M546 -125l-26 -103h-520l26 103h520z" horiz-adv-x="500" unicode="_" glyph-name="underscore"/>
<glyph d="M241 556h-116l-95 149h158z" horiz-adv-x="271" unicode="`" glyph-name="grave"/>
<glyph d="M303 168l18 74q-78 0 -123 -29q-7 -4 -16 -12t-19 -28.5t-10 -43.5q0 -11 3 -21.5t16 -21t34 -10.5q26 0 49 13.5t34 35.5q5 10 14 43zM452 0h-141q-40 0 -40 38q0 9 2 21q-1 -1 -4.5 -5t-8 -9t-8.5 -9q-55 -47 -134 -47q-12 0 -24.5 1.5t-32 8t-34 17.5t-25 33.5 t-10.5 52.5q0 143 156 181q69 17 190 23l6 21q10 34 10 59q0 50 -55 50q-28 0 -47.5 -15.5t-26 -31.5t-13.5 -41h-159q36 164 255 164q203 0 203 -129q0 -27 -10 -64l-60 -230q-9 -39 -9 -49q0 -21 23 -29z" horiz-adv-x="542" unicode="a" glyph-name="a"/>
<glyph d="M243 368l-50 -192q-10 -42 -10 -47q0 -19 17 -38t50 -19q58 0 93 72q19 38 37 108t18 110q0 67 -54 67q-48 0 -101 -61zM147 0h-163l183 706h163l-69 -265q25 20 41 31t51.5 24.5t70.5 13.5q59 0 95.5 -37t36.5 -111q0 -21 -3.5 -51t-12.5 -74.5t-28 -85.5t-46 -78 t-71 -59.5t-98 -22.5q-90 0 -135 65z" unicode="b" glyph-name="b"/>
<glyph d="M542 333h-155q5 25 5 38q0 31 -17.5 49.5t-47.5 18.5q-40 0 -68.5 -29t-50.5 -96l-3 -10q-3 -9 -6.5 -21.5t-8 -31t-8.5 -36t-6.5 -36.5t-2.5 -34q0 -82 71 -82q75 0 103 98h160q-24 -78 -82 -121q-71 -52 -185 -52q-224 0 -224 174q0 46 14.5 104.5t35.5 99.5 q77 146 264 146q39 0 73 -6.5t68 -22t54 -47t20 -77.5q0 -11 -3 -26z" horiz-adv-x="558" unicode="c" glyph-name="c"/>
<glyph d="M347 204l48 187q-23 37 -67 37q-39 0 -69 -33q-32 -36 -60 -119.5t-28 -135.5q0 -8 1.5 -16.5t6.5 -21.5t18.5 -21.5t32.5 -8.5q83 0 117 132zM456 0h-162l14 54q-79 -63 -158 -63q-23 0 -44 6t-44 21t-36.5 46.5t-13.5 76.5q0 85 36 180q70 188 232 188q83 0 131 -57 l65 254h163z" unicode="d" glyph-name="d"/>
<glyph d="M204 306h177q11 44 11 63q0 32 -18.5 50.5t-50.5 18.5q-26 0 -45.5 -10.5t-33.5 -32.5t-21.5 -39.5t-18.5 -49.5zM525 236h-341q-15 -51 -15 -92q0 -35 18.5 -57.5t57.5 -22.5q78 0 106 94h159q-15 -48 -46.5 -82.5t-63 -50.5t-72 -25.5t-59 -10.5t-38.5 -1 q-216 0 -216 169q0 48 17 114q34 135 107.5 188t187.5 53q214 0 214 -168q0 -49 -16 -108z" horiz-adv-x="562" unicode="e" glyph-name="e"/>
<glyph d="M159 0h-163l112 432h-67l18 68h66l13 50q6 23 10 35.5t20 41t35.5 44.5t56.5 30t84 14q54 0 101 -17l-22 -84q-33 11 -48 11q-25 0 -41.5 -15t-23 -31t-12.5 -42l-9 -37h80l-17 -68h-81z" horiz-adv-x="313" unicode="f" glyph-name="f"/>
<glyph d="M354 212l46 177q-27 40 -71 40q-64 0 -108 -109q-43 -104 -43 -173q0 -31 15.5 -49.5t46.5 -18.5q46 0 80 42q4 4 6.5 8.5t5.5 10.5t4.5 9.5t4 12.5t4 13.5t4.5 17.5t5 19zM587 500l-137 -528q-26 -99 -95.5 -143t-192.5 -44t-173 50q-30 30 -30 81q0 17 4 37h161 q-4 -27 -4 -38q0 -25 13.5 -39.5t25.5 -17.5t24 -3q32 0 55.5 22.5t34 49t20.5 65.5l18 72q-21 -18 -34 -28t-44 -21.5t-67 -11.5q-71 0 -110.5 39t-39.5 117q0 59 21.5 128t55.5 118q75 104 189 104q89 0 130 -58l13 49h162z" unicode="g" glyph-name="g"/>
<glyph d="M454 0h-164l78 303q16 58 16 76q0 46 -51 46q-37 0 -66 -29q-26 -26 -36 -67l-85 -329h-163l183 706h163l-68 -264q86 67 177 67q47 0 79.5 -26.5t32.5 -76.5q0 -30 -16 -94z" horiz-adv-x="575" unicode="h" glyph-name="h"/>
<glyph d="M275 500l-130 -500h-163l129 500h164zM327 701l-33 -124h-163l32 124h164z" horiz-adv-x="271" unicode="i" glyph-name="i"/>
<glyph d="M297 578h-162l32 123h162zM277 500l-125 -482q-33 -126 -85 -177.5t-161 -51.5q-33 0 -70 5l26 94q12 -3 28 -3q17 0 29 3.5t22.5 15.5t16 19.5t13.5 32t11.5 36t12.5 47.5l120 461h162z" horiz-adv-x="271" unicode="j" glyph-name="j"/>
<glyph d="M596 500l-201 -177l106 -323h-169l-67 215l-85 -79l-35 -136h-161l183 706h160l-104 -401l206 195h167z" horiz-adv-x="542" unicode="k" glyph-name="k"/>
<glyph d="M328 706l-181 -706h-164l181 706h164z" horiz-adv-x="271" unicode="l" glyph-name="l"/>
<glyph d="M113 500h162l-15 -60q81 69 164 69q45 0 76.5 -20t39.5 -62q31 32 80.5 57t103.5 25q15 0 30.5 -3t37.5 -12.5t36 -33.5t14 -58q0 -30 -18 -102l-78 -300h-163l82 316q11 40 11 60q0 19 -11.5 33t-37.5 14q-36 0 -64 -30q-22 -22 -38 -85l-79 -308h-163l81 312 q13 47 13 65q0 19 -11 33t-37 14q-33 0 -64 -28q-15 -13 -22 -29.5t-16 -52.5l-81 -314h-163z" horiz-adv-x="867" unicode="m" glyph-name="m"/>
<glyph d="M454 0h-164l78 303q16 58 16 76q0 46 -55 46q-35 0 -63 -28q-23 -24 -35 -69l-85 -328h-163l130 500h162l-15 -58q86 67 178 67q47 0 79.5 -26.5t32.5 -76.5q0 -30 -16 -94z" horiz-adv-x="575" unicode="n" glyph-name="n"/>
<glyph d="M178 148q0 -45 21.5 -64t49.5 -19q49 0 79.5 52t52.5 147q0 1 2.5 12t5 23.5t4.5 29t2 29.5q0 14 -3 28.5t-20 32t-47 17.5q-68 0 -105 -89q-14 -34 -28 -99t-14 -100zM19 168q0 80 33 164q71 180 286 180q95 0 154 -44t59 -139q0 -37 -12 -90q-13 -55 -31 -95.5t-51 -78 t-89 -57.5t-133 -20q-98 0 -157 43t-59 137z" unicode="o" glyph-name="o"/>
<glyph d="M242 367l-47 -184q-11 -37 -11 -55q0 -20 15 -38t48 -18q58 0 96 78q19 39 36 104t17 105q0 38 -16.5 54.5t-39.5 16.5q-43 0 -98 -63zM94 -206h-164l183 706h164l-15 -58q84 67 165 67q40 0 67.5 -14t40 -38t17.5 -46t5 -46q0 -69 -26 -158t-64 -134q-68 -82 -170 -82 q-94 0 -135 66z" unicode="p" glyph-name="p"/>
<glyph d="M343 194l51 198q-8 17 -27 26.5t-39 9.5q-36 0 -64 -27q-35 -34 -63 -118.5t-28 -138.5q0 -38 18.5 -54.5t41.5 -16.5q80 0 110 121zM586 500l-183 -706h-163l66 259q-69 -62 -154 -62q-11 0 -22 1t-34.5 9t-40 22t-30 43.5t-13.5 70.5q0 57 21.5 139t64.5 140 q69 93 183 93q86 0 129 -55l12 46h164z" unicode="q" glyph-name="q"/>
<glyph d="M146 0h-163l130 500h162l-26 -98q13 22 22 34t28.5 32.5t44 30.5t53.5 10q21 0 39 -9l-36 -127q-35 19 -62 19q-91 0 -125 -132z" horiz-adv-x="375" unicode="r" glyph-name="r"/>
<glyph d="M-21 152l148 -4q-1 -7 -1 -19q0 -34 22 -51.5t53 -17.5t52 17.5t21 44.5q0 25 -16.5 41t-58.5 35l-52 24q-96 44 -96 130q0 14 3 30t16.5 40.5t35.5 43.5t66.5 33t103.5 14q17 0 34 -1t49 -7.5t55 -18t41 -36t18 -58.5q0 -14 -2 -27q-114 3 -138 4q2 12 2 18 q0 21 -13.5 38t-51.5 17q-32 0 -48 -16t-16 -34q0 -21 16 -37.5t59 -35.5l49 -21q100 -43 100 -131q0 -75 -62 -129q-58 -50 -173 -50q-219 0 -219 130q0 13 3 34z" horiz-adv-x="479" unicode="s" glyph-name="s"/>
<glyph d="M290 94l-23 -88q-62 -15 -107 -15q-32 0 -59.5 7t-51 32t-23.5 66q0 24 14 80l66 256h-66l18 68h66l25 97l170 31l-33 -128h83l-18 -68h-82l-63 -240q-12 -45 -12 -64q0 -42 48 -42q17 0 48 8z" horiz-adv-x="333" unicode="t" glyph-name="t"/>
<glyph d="M106 500h164l-79 -302q-15 -54 -15 -78q0 -43 51 -43q39 0 67 28q24 25 35 67l85 328h163l-130 -500h-162l15 58q-43 -35 -79 -51t-93 -16q-48 0 -83 27t-35 76q0 30 16 94z" horiz-adv-x="572" unicode="u" glyph-name="u"/>
<glyph d="M553 500l-283 -500h-189l-21 500h159q0 -301 -3 -366q11 26 56.5 117.5t85.5 170.5l39 78h156z" horiz-adv-x="500" unicode="v" glyph-name="v"/>
<glyph d="M838 500l-256 -500h-180q0 253 3 317q-12 -31 -52.5 -110t-74.5 -143l-35 -64h-180v500h160q-11 -279 -16 -367l180 367h139q-5 -278 -8 -365q9 26 50.5 117.5t77.5 169.5l37 78h155z" horiz-adv-x="792" unicode="w" glyph-name="w"/>
<glyph d="M545 500l-219 -242l93 -258h-162l-47 148l-123 -148h-159l239 263l-82 237h160l41 -136l108 136h151z" horiz-adv-x="500" unicode="x" glyph-name="x"/>
<glyph d="M552 500l-276 -512q-49 -91 -72 -120q-63 -79 -181 -79q-68 0 -119 12l30 107q25 -10 54 -10q49 0 75.5 29t26.5 79q0 15 -2 55l-28 439h160q2 -187 2 -372l175 372h155z" horiz-adv-x="500" unicode="y" glyph-name="y"/>
<glyph d="M507 500l-26 -100l-303 -294h239l-28 -106h-438l25 94l307 301h-220l27 105h417z" horiz-adv-x="479" unicode="z" glyph-name="z"/>
<glyph d="M465 706l-15 -58q-78 -16 -101 -36t-42 -96l-25 -101q-16 -64 -43.5 -93t-82.5 -40q64 -27 64 -96q0 -22 -7 -52l-18 -77q-9 -41 -9 -62q0 -32 17 -49t69 -28l-15 -58h-66q-87 0 -124.5 26t-37.5 84q0 21 10 69l20 89q8 38 8 55q0 56 -52 72l14 59q46 8 67.5 31.5 t37.5 87.5l30 116q25 96 69.5 126.5t159.5 30.5h72z" horiz-adv-x="365" unicode="{" glyph-name="braceleft"/>
<glyph d="M362 706l-220 -847h-153l218 847h155z" horiz-adv-x="344" unicode="|" glyph-name="bar"/>
<glyph d="M115 706h72q84 0 119.5 -27t35.5 -84q0 -27 -9 -68l-21 -90q-7 -32 -7 -54q0 -57 52 -73l-15 -58q-44 -7 -66 -31.5t-38 -87.5l-30 -116q-24 -93 -70 -125t-159 -32h-72l14 58q79 15 101 35t42 97l26 100q17 64 44 93.5t82 40.5q-64 27 -64 96q0 27 6 51l19 78q9 35 9 61 q0 34 -17.5 50t-68.5 27z" horiz-adv-x="365" unicode="}" glyph-name="braceright"/>
<glyph d="M644 427l17 -125q-108 -102 -187 -102q-41 0 -114 43l-30 18q-57 34 -95 34q-31 0 -53.5 -14.5t-83.5 -71.5l-17 126q50 54 91.5 78t89.5 24q39 0 107 -38l55 -31q49 -28 72 -28q33 0 63.5 17.5t84.5 69.5z" horiz-adv-x="724" unicode="~" glyph-name="asciitilde"/>
<glyph horiz-adv-x="271" unicode=" " glyph-name="uni00A0"/>
<glyph d="M242 436l-101 -436h-178l125 436h154zM306 648l-38 -147h-172l38 147h172z" horiz-adv-x="292" unicode="¡" glyph-name="exclamdown"/>
<glyph d="M329 611h82l-27 -102q149 -24 149 -146q0 -10 -4 -42h-146q5 32 5 53q0 30 -20 45t-49 15q-39 0 -65 -19t-45 -62q-16 -37 -31.5 -101.5t-15.5 -101.5q0 -83 77 -83q44 0 67 23.5t43 80.5h151q-18 -83 -70 -129q-57 -50 -180 -54l-30 -114h-81l30 116q-78 12 -117.5 53 t-39.5 119q0 60 23 137.5t63 124.5q77 88 206 88z" horiz-adv-x="542" unicode="¢" glyph-name="cent"/>
<glyph d="M525 116l-31 -116h-540l28 106q41 6 71 31q54 46 72 110h-91l22 86h98q14 46 29 87q47 134 119.5 186t207.5 52q58 0 116 -16l-29 -113q-31 23 -85 23q-82 0 -128 -76q-17 -28 -58 -143h182l-21 -86h-195q-41 -97 -140 -131h373z" horiz-adv-x="573" unicode="£" glyph-name="sterling"/>
<glyph d="M514 339q0 66 -43 111t-107 45t-108 -45t-44 -111q0 -65 44 -109t109 -44t107 44t42 109zM613 632l75 -87l-84 -72q35 -73 35 -132q0 -92 -57 -168l74 -85l-89 -75l-71 86q-44 -21 -71 -28t-62 -7q-93 0 -166 57l-85 -73l-74 86l84 74q-35 61 -35 130q0 92 57 167l-73 84 l87 75l72 -84q62 36 133 36q94 0 167 -57z" horiz-adv-x="701" unicode="¤" glyph-name="currency"/>
<glyph d="M685 648l-184 -250h87l-19 -76h-127l-49 -66h159l-19 -75h-176l-47 -181h-167l47 181h-173l19 75h157l-15 66h-125l19 76h89l-55 250h163l49 -289l198 289h169z" horiz-adv-x="595" unicode="¥" glyph-name="yen"/>
<glyph d="M237 222l-96 -363h-152l94 363h154zM362 706l-95 -363h-152l94 363h153z" horiz-adv-x="344" unicode="¦" glyph-name="brokenbar"/>
<glyph d="M271 397l-27 22q-31 25 -45 38q-40 -30 -40 -60q0 -17 12.5 -32t44.5 -43l28 -24q1 -1 20.5 -15t26.5 -22q36 32 36 58q0 33 -56 78zM-23 24l26 95q18 -13 32 -19q52 -26 99 -26q33 0 50 14.5t17 33.5q0 12 -6 22.5t-14 18.5t-28 25l-31 27q-77 69 -77 128q0 24 12 52 q10 23 27.5 42t33 30t42.5 27q-29 39 -29 76q0 18 7.5 39t26.5 47.5t63 43.5t106 17q76 0 142 -26l-22 -81q-65 27 -106 27q-30 0 -45 -13t-15 -31q0 -26 48 -66l35 -28q70 -55 70 -119q0 -86 -113 -156q26 -35 26 -72q0 -13 -3 -29t-16 -41t-34.5 -44.5t-63.5 -33.5 t-98 -14q-87 0 -162 34z" horiz-adv-x="437" unicode="§" glyph-name="section"/>
<glyph d="M116 689l-31 -121h-114l31 121h114zM300 689l-31 -121h-115l31 121h115z" horiz-adv-x="271" unicode="¨" glyph-name="dieresis"/>
<glyph d="M605 447q0 -14 -4 -38h-111q6 22 6 37q0 53 -57 53q-52 0 -81 -61q-11 -24 -24.5 -80t-13.5 -82q0 -70 63 -70q33 0 51.5 18t29.5 60h114q-18 -79 -66 -113t-134 -34q-83 0 -127.5 36t-44.5 102q0 67 25.5 138t62.5 107q51 50 149 50q162 0 162 -123zM720 351 q0 135 -90.5 227.5t-222.5 92.5q-131 0 -222.5 -93t-91.5 -226q0 -131 92 -224t222 -93q129 0 221 93t92 223zM763 356q0 -152 -103 -255.5t-254 -103.5q-149 0 -252 104t-103 254q0 148 103.5 251t252.5 103t252.5 -102.5t103.5 -250.5z" horiz-adv-x="770" unicode="©" glyph-name="copyright"/>
<glyph d="M291 528q-108 -6 -108 -73q0 -34 34 -34q48 0 62 59zM384 365h-98q-29 0 -29 26q0 5 1 8q-15 -17 -43 -29t-58 -12q-87 0 -87 78q0 35 15 60.5t33.5 39t51 22.5t53 11.5t53.5 4.5l28 2q10 43 10 52q0 31 -35 31q-45 0 -57 -59h-112q15 45 25 58q45 57 151 57 q138 0 138 -88q0 -21 -6 -45l-41 -155q-5 -20 -5 -32q0 -15 15 -19z" horiz-adv-x="375" unicode="ª" glyph-name="ordfeminine"/>
<glyph d="M314 456l-164 -197l71 -196h-132l-69 196l158 197h136zM543 456l-164 -197l71 -196h-131l-70 196l158 197h136z" horiz-adv-x="521" unicode="«" glyph-name="guillemotleft"/>
<glyph d="M655 376l-89 -357h-154l60 239h-412l29 118h566z" horiz-adv-x="724" unicode="¬" glyph-name="logicalnot"/>
<glyph d="M397 321l-32 -125h-355l32 125h355z" horiz-adv-x="417" unicode="­" glyph-name="uni00AD"/>
<glyph d="M403 499l-29 -118h40q83 0 83 71q0 26 -14 36.5t-47 10.5h-33zM315 564h154q132 0 132 -99q0 -48 -27.5 -78t-77.5 -36q28 -8 40 -27.5t12 -57.5q0 -10 -0.5 -35t-0.5 -45q0 -23 10 -39h-106q-9 10 -9 28q0 4 1 40t1 44q0 34 -12.5 45t-49.5 11h-25l-41 -168h-104z M720 351q0 135 -90.5 227.5t-222.5 92.5q-131 0 -222.5 -93t-91.5 -226q0 -131 92 -224t222 -93q129 0 221 93t92 223zM763 356q0 -152 -103 -255.5t-254 -103.5q-149 0 -252 104t-103 254q0 148 103.5 251t252.5 103t252.5 -102.5t103.5 -250.5z" horiz-adv-x="770" unicode="®" glyph-name="registered"/>
<glyph d="M293 666l-21 -86h-294l21 86h294z" horiz-adv-x="271" unicode="¯" glyph-name="macron"/>
<glyph d="M259 582q0 29 -21.5 50t-50.5 21q-30 0 -51 -21t-21 -50q0 -30 21.5 -51t50.5 -21q30 0 51 21.5t21 50.5zM359 582q0 -71 -50.5 -121.5t-121.5 -50.5q-72 0 -122 51t-50 122q0 72 50.5 122t122.5 50q71 0 121 -51t50 -122z" horiz-adv-x="354" unicode="°" glyph-name="degree"/>
<glyph d="M596 124l-31 -124h-539l32 124h538zM688 486l-29 -114h-193l-50 -197h-153l50 197h-193l29 114h193l49 192h152l-48 -192h193z" horiz-adv-x="724" unicode="±" glyph-name="plusminus"/>
<glyph d="M426 441h-341l19 71q20 18 150 121q51 40 71 57.5t36 41.5t16 48q0 18 -9.5 28.5t-18 13t-17.5 2.5q-15 0 -26.5 -5t-18 -10t-13 -19t-8 -18.5t-6 -23t-4.5 -19.5h-116q13 89 65.5 124t138.5 35q75 0 114 -29.5t39 -78.5q0 -29 -12.5 -56t-37.5 -51.5t-43.5 -38.5 t-49.5 -36q-60 -41 -103 -73l197 2z" horiz-adv-x="413" unicode="²" glyph-name="twosuperior"/>
<glyph d="M237 639l16 63h17q57 0 85.5 16.5t28.5 66.5q0 44 -44 44q-24 0 -39.5 -14.5t-20 -28t-5.5 -27.5h-115q6 39 26 66q46 63 164 63q73 0 110.5 -26.5t37.5 -75.5q0 -39 -28 -71t-92 -44q85 -20 85 -89q0 -49 -27 -83q-52 -64 -170 -64q-78 0 -120 28t-42 76q0 18 6 39h114 q-4 -16 -4 -30q0 -23 14 -36t39 -13q35 0 52.5 25.5t17.5 61.5q0 32 -21.5 42.5t-70.5 10.5h-14z" horiz-adv-x="413" unicode="³" glyph-name="threesuperior"/>
<glyph d="M279 705l-168 -149h-119l120 149h167z" horiz-adv-x="271" unicode="´" glyph-name="acute"/>
<glyph d="M586 500l-130 -500h-162l15 54q-35 -53 -98 -53q-52 0 -63 49l-62 -256h-163l183 706h163l-78 -307q-12 -48 -12 -64q0 -46 54 -46q26 0 50 12q26 15 36.5 34.5t23.5 67.5l81 303h162z" unicode="µ" glyph-name="mu"/>
<glyph d="M639 706l-19 -75h-35l-201 -798h-79l201 798h-123l-201 -798h-80l120 475q-110 38 -110 164q0 55 27 105t73 81q39 26 81 37t111 11h235z" horiz-adv-x="640" unicode="¶" glyph-name="paragraph"/>
<glyph d="M225 331l-38 -147h-172l38 147h172z" horiz-adv-x="250" unicode="·" glyph-name="periodcentered"/>
<glyph d="M115 12h44l-21 -57q57 0 83 -24.5t26 -63.5q0 -37 -20 -65q-40 -54 -140 -54q-23 0 -63 4l17 69q32 -4 51 -4q71 0 71 43q0 33 -64 33h-27z" horiz-adv-x="271" unicode="¸" glyph-name="cedilla"/>
<glyph d="M435 893l-114 -452h-120l87 345h-95l18 72q126 9 224 35z" horiz-adv-x="413" unicode="¹" glyph-name="onesuperior"/>
<glyph d="M196 469q0 -29 13.5 -42t32.5 -13q33 0 52 34t34 97q9 36 9 62q0 52 -45 52q-27 0 -47.5 -25t-30 -60t-14 -62.5t-4.5 -42.5zM84 481q0 19 2.5 41.5t15.5 59t34 64t63.5 48.5t98.5 21q150 0 150 -125q0 -29 -8 -59q-9 -38 -22 -66t-35.5 -54t-60 -40t-88.5 -14 q-150 0 -150 124z" horiz-adv-x="396" unicode="º" glyph-name="ordmasculine"/>
<glyph d="M259 260l-158 -197h-136l164 197l-71 196h132zM488 260l-158 -197h-136l165 197l-71 196h131z" horiz-adv-x="521" unicode="»" glyph-name="guillemotright"/>
<glyph d="M691 648l-426 -648h-73l427 648h72zM847 165l-21 -81h-48l-22 -84h-108l22 84h-204l17 68q62 78 208 290h120q-17 -25 -104.5 -140t-107.5 -137h97l34 128l104 6l-35 -134h48zM250 206h-120l87 345h-95l18 72q126 9 224 35z" horiz-adv-x="951" unicode="¼" glyph-name="onequarter"/>
<glyph d="M675 648l-426 -648h-73l427 648h72zM823 0h-341l19 71q20 18 150 121q51 40 71 57.5t36 41.5t16 48q0 18 -9.5 28.5t-18 13t-17.5 2.5q-15 0 -26.5 -5t-18 -10t-13 -19t-8 -18.5t-6 -23t-4.5 -19.5h-116q13 89 65.5 124t138.5 35q75 0 114 -29.5t39 -78.5 q0 -29 -12.5 -56t-37.5 -51.5t-43.5 -38.5t-49.5 -36q-60 -41 -103 -73l197 2zM356 658l-114 -452h-120l87 345h-95l18 72q126 9 224 35z" horiz-adv-x="951" unicode="½" glyph-name="onehalf"/>
<glyph d="M753 648l-426 -648h-73l427 648h72zM179 404l16 63h17q57 0 85.5 16.5t28.5 66.5q0 44 -44 44q-24 0 -39.5 -14.5t-20 -28t-5.5 -27.5h-115q6 39 26 66q46 63 164 63q73 0 110.5 -26.5t37.5 -75.5q0 -39 -28 -71t-92 -44q85 -20 85 -89q0 -49 -27 -83q-52 -64 -170 -64 q-78 0 -120 28t-42 76q0 18 6 39h114q-4 -16 -4 -30q0 -23 14 -36t39 -13q35 0 52.5 25.5t17.5 61.5q0 32 -21.5 42.5t-70.5 10.5h-14zM887 165l-21 -81h-48l-22 -84h-108l22 84h-204l17 68q62 78 208 290h120q-17 -25 -104.5 -140t-107.5 -137h97l34 128l104 6l-35 -134h48 z" horiz-adv-x="951" unicode="¾" glyph-name="threequarters"/>
<glyph d="M274 435h158l-34 -132h-19q-92 0 -149.5 -40.5t-57.5 -113.5q0 -33 17.5 -54t50.5 -21q18 0 32 7.5t22.5 16.5t15.5 26t10.5 27.5t7.5 29.5l2 10h164q-11 -60 -35 -101t-61.5 -61.5t-77.5 -28.5t-93 -8q-124 0 -175.5 45.5t-51.5 114.5q0 53 31 102q62 98 228 121z M280 502l38 146h172l-38 -146h-172z" horiz-adv-x="521" unicode="¿" glyph-name="questiondown"/>
<glyph d="M538 756h-116l-94 149h158zM287 336h144q-1 128 -4 250zM617 0h-180q-7 218 -7 230h-198l-128 -230h-177l406 706h258z" horiz-adv-x="688" unicode="À" glyph-name="Agrave"/>
<glyph d="M687 905l-168 -149h-119l120 149h167zM287 336h144q-1 128 -4 250zM617 0h-180q-7 218 -7 230h-198l-128 -230h-177l406 706h258z" horiz-adv-x="688" unicode="Á" glyph-name="Aacute"/>
<glyph d="M616 756h-100l-25 93l-76 -93h-103l123 147h132zM287 336h144q-1 128 -4 250zM617 0h-180q-7 218 -7 230h-198l-128 -230h-177l406 706h258z" horiz-adv-x="688" unicode="Â" glyph-name="Acircumflex"/>
<glyph d="M577 901h88l-11 -45q-11 -47 -29.5 -73t-56.5 -26q-37 0 -86 35l-20 14q-23 17 -34 17q-18 0 -27 -40l-5 -23h-87l10 41q6 25 12 40.5t16 31.5t25 23.5t36 7.5q34 0 81 -33l25 -17q26 -18 34 -18q16 0 24 41zM287 336h144q-1 128 -4 250zM617 0h-180q-7 218 -7 230h-198 l-128 -230h-177l406 706h258z" horiz-adv-x="688" unicode="Ã" glyph-name="Atilde"/>
<glyph d="M469 889l-31 -121h-115l32 121h114zM653 889l-31 -121h-115l31 121h115zM287 336h144q-1 128 -4 250zM617 0h-180q-7 218 -7 230h-198l-128 -230h-177l406 706h258z" horiz-adv-x="688" unicode="Ä" glyph-name="Adieresis"/>
<glyph d="M520 852q0 16 -12 28t-28 12q-18 0 -30 -12t-12 -30t11.5 -29.5t29.5 -11.5t29.5 12.5t11.5 30.5zM576 852q0 -41 -28.5 -70t-68.5 -29q-41 0 -69 27t-28 68q0 42 28 70.5t70 28.5q41 0 68.5 -27t27.5 -68zM287 336h144q-1 128 -4 250zM617 0h-180q-7 218 -7 230h-198 l-128 -230h-177l406 706h258z" horiz-adv-x="688" unicode="Å" glyph-name="Aring"/>
<glyph d="M517 595h-47l-138 -228h126zM983 706l-28 -111h-265l-45 -173h251l-28 -111h-252l-51 -199h297l-29 -112h-470l68 261h-158l-165 -261h-180l443 706h612z" horiz-adv-x="917" unicode="Æ" glyph-name="AE"/>
<glyph d="M274 -13l-12 -31q14 0 28 -2.5t35 -10t34 -27t13 -49.5q0 -37 -22 -66q-38 -52 -139 -52q-10 0 -25.5 0.5t-26.5 1.5l-11 1l18 69q27 -3 50 -3q71 0 71 42q0 34 -70 34h-21l36 98q-26 6 -45.5 12t-49 22t-49 37.5t-34 59.5t-14.5 86q0 66 26.5 169t60.5 169 q29 56 67 92.5t81 53.5t79 22.5t81 5.5q136 0 201.5 -49t65.5 -138q0 -17 -5 -52h-178q6 33 6 52q0 54 -27.5 74t-62.5 20q-58 0 -91 -36t-59 -103q-22 -58 -44.5 -152.5t-22.5 -145.5q0 -110 99 -110q59 0 91 39.5t55 105.5h182q-30 -116 -107.5 -178t-218.5 -62 q-28 0 -45 1z" horiz-adv-x="687" unicode="Ç" glyph-name="Ccedilla"/>
<glyph d="M459 756h-116l-94 149h158zM611 706l-29 -111h-254l-44 -173h240l-29 -111h-240l-52 -200h284l-29 -111h-465l183 706h435z" horiz-adv-x="542" unicode="È" glyph-name="Egrave"/>
<glyph d="M615 905l-168 -149h-119l120 149h167zM611 706l-29 -111h-254l-44 -173h240l-29 -111h-240l-52 -200h284l-29 -111h-465l183 706h435z" horiz-adv-x="542" unicode="É" glyph-name="Eacute"/>
<glyph d="M543 756h-100l-25 93l-76 -93h-103l123 147h132zM611 706l-29 -111h-254l-44 -173h240l-29 -111h-240l-52 -200h284l-29 -111h-465l183 706h435z" horiz-adv-x="542" unicode="Ê" glyph-name="Ecircumflex"/>
<glyph d="M395 889l-31 -121h-115l32 121h114zM579 889l-31 -121h-115l31 121h115zM611 706l-29 -111h-254l-44 -173h240l-29 -111h-240l-52 -200h284l-29 -111h-465l183 706h435z" horiz-adv-x="542" unicode="Ë" glyph-name="Edieresis"/>
<glyph d="M345 756h-116l-94 149h158zM360 706l-183 -706h-185l183 706h185z" horiz-adv-x="313" unicode="Ì" glyph-name="Igrave"/>
<glyph d="M500 905l-168 -149h-119l120 149h167zM360 706l-183 -706h-185l183 706h185z" horiz-adv-x="313" unicode="Í" glyph-name="Iacute"/>
<glyph d="M429 756h-100l-25 93l-76 -93h-103l123 147h132zM360 706l-183 -706h-185l183 706h185z" horiz-adv-x="313" unicode="Î" glyph-name="Icircumflex"/>
<glyph d="M281 889l-31 -121h-115l32 121h114zM465 889l-31 -121h-115l31 121h115zM360 706l-183 -706h-185l183 706h185z" horiz-adv-x="313" unicode="Ï" glyph-name="Idieresis"/>
<glyph d="M334 613l-49 -191h137l-24 -94h-137l-61 -234h64q41 0 65.5 3t58.5 21t61 54q37 48 66 152t29 176q0 24 -4 40.5t-17 35t-43.5 28t-77.5 9.5h-68zM176 706h261q47 0 78.5 -2t75 -14t70 -33.5t45.5 -63.5t19 -101q0 -63 -16 -142.5t-58.5 -167.5t-102.5 -129 q-79 -53 -233 -53h-322l85 328h-59l24 94h59z" horiz-adv-x="729" unicode="Ð" glyph-name="Eth"/>
<glyph d="M598 901h88l-11 -45q-11 -47 -29.5 -73t-56.5 -26q-37 0 -86 35l-20 14q-23 17 -34 17q-18 0 -27 -40l-5 -23h-87l10 41q6 25 12 40.5t16 31.5t25 23.5t36 7.5q34 0 81 -33l25 -17q26 -18 34 -18q16 0 24 41zM591 0h-202q-110 456 -114 497l-121 -497h-161l186 706h207 q106 -436 113 -493q4 24 33.5 147.5t57.5 234.5l27 111h158z" horiz-adv-x="729" unicode="Ñ" glyph-name="Ntilde"/>
<glyph d="M553 756h-116l-94 149h158zM549 517q0 32 -11.5 55t-30.5 33.5t-36 15t-34 4.5q-35 0 -62.5 -14t-45.5 -40t-25.5 -41t-16.5 -39q-25 -67 -45.5 -156t-20.5 -139q0 -115 108 -115q33 0 59 13t44.5 33.5t35 58t28.5 75t26 95.5q27 105 27 161zM726 492q0 -69 -24 -169 q-10 -42 -19 -72t-25 -68t-34 -64t-46 -53t-61.5 -43.5t-80.5 -27t-103 -10.5q-130 0 -211.5 56t-81.5 175q0 21 6.5 66.5t21.5 115.5t50.5 139.5t83.5 110.5q86 72 237 72q142 0 214.5 -62.5t72.5 -165.5z" horiz-adv-x="729" unicode="Ò" glyph-name="Ograve"/>
<glyph d="M671 905l-168 -149h-119l120 149h167zM549 517q0 32 -11.5 55t-30.5 33.5t-36 15t-34 4.5q-35 0 -62.5 -14t-45.5 -40t-25.5 -41t-16.5 -39q-25 -67 -45.5 -156t-20.5 -139q0 -115 108 -115q33 0 59 13t44.5 33.5t35 58t28.5 75t26 95.5q27 105 27 161zM726 492 q0 -69 -24 -169q-10 -42 -19 -72t-25 -68t-34 -64t-46 -53t-61.5 -43.5t-80.5 -27t-103 -10.5q-130 0 -211.5 56t-81.5 175q0 21 6.5 66.5t21.5 115.5t50.5 139.5t83.5 110.5q86 72 237 72q142 0 214.5 -62.5t72.5 -165.5z" horiz-adv-x="729" unicode="Ó" glyph-name="Oacute"/>
<glyph d="M616 756h-100l-25 93l-76 -93h-103l123 147h132zM549 517q0 32 -11.5 55t-30.5 33.5t-36 15t-34 4.5q-35 0 -62.5 -14t-45.5 -40t-25.5 -41t-16.5 -39q-25 -67 -45.5 -156t-20.5 -139q0 -115 108 -115q33 0 59 13t44.5 33.5t35 58t28.5 75t26 95.5q27 105 27 161z M726 492q0 -69 -24 -169q-10 -42 -19 -72t-25 -68t-34 -64t-46 -53t-61.5 -43.5t-80.5 -27t-103 -10.5q-130 0 -211.5 56t-81.5 175q0 21 6.5 66.5t21.5 115.5t50.5 139.5t83.5 110.5q86 72 237 72q142 0 214.5 -62.5t72.5 -165.5z" horiz-adv-x="729" unicode="Ô" glyph-name="Ocircumflex"/>
<glyph d="M571 901h88l-11 -45q-11 -47 -29.5 -73t-56.5 -26q-37 0 -86 35l-20 14q-23 17 -34 17q-18 0 -27 -40l-5 -23h-87l10 41q6 25 12 40.5t16 31.5t25 23.5t36 7.5q34 0 81 -33l25 -17q26 -18 34 -18q16 0 24 41zM549 517q0 32 -11.5 55t-30.5 33.5t-36 15t-34 4.5 q-35 0 -62.5 -14t-45.5 -40t-25.5 -41t-16.5 -39q-25 -67 -45.5 -156t-20.5 -139q0 -115 108 -115q33 0 59 13t44.5 33.5t35 58t28.5 75t26 95.5q27 105 27 161zM726 492q0 -69 -24 -169q-10 -42 -19 -72t-25 -68t-34 -64t-46 -53t-61.5 -43.5t-80.5 -27t-103 -10.5 q-130 0 -211.5 56t-81.5 175q0 21 6.5 66.5t21.5 115.5t50.5 139.5t83.5 110.5q86 72 237 72q142 0 214.5 -62.5t72.5 -165.5z" horiz-adv-x="729" unicode="Õ" glyph-name="Otilde"/>
<glyph d="M458 889l-31 -121h-115l32 121h114zM642 889l-31 -121h-115l31 121h115zM549 517q0 32 -11.5 55t-30.5 33.5t-36 15t-34 4.5q-35 0 -62.5 -14t-45.5 -40t-25.5 -41t-16.5 -39q-25 -67 -45.5 -156t-20.5 -139q0 -115 108 -115q33 0 59 13t44.5 33.5t35 58t28.5 75t26 95.5 q27 105 27 161zM726 492q0 -69 -24 -169q-10 -42 -19 -72t-25 -68t-34 -64t-46 -53t-61.5 -43.5t-80.5 -27t-103 -10.5q-130 0 -211.5 56t-81.5 175q0 21 6.5 66.5t21.5 115.5t50.5 139.5t83.5 110.5q86 72 237 72q142 0 214.5 -62.5t72.5 -165.5z" horiz-adv-x="729" unicode="Ö" glyph-name="Odieresis"/>
<glyph d="M636 461l-172 -138l124 -157l-118 -95l-124 156l-170 -137l-71 88l170 137l-123 155l119 95l122 -154l172 138z" horiz-adv-x="724" unicode="×" glyph-name="multiply"/>
<glyph d="M217 222l330 340q-7 13 -13 21t-18.5 20t-31.5 18.5t-44 6.5q-91 0 -140 -96q-24 -49 -48 -131.5t-30 -136.5zM551 494l-331 -342l3 -8q3 -7 10.5 -18t19 -22.5t32.5 -19t48 -7.5q21 0 37 4t39.5 19.5t46 53.5t42.5 98q46 146 53 242zM752 701l-70 -72q22 -27 33 -56 t11 -81q0 -83 -40 -232q-35 -131 -111 -199q-87 -76 -242 -76q-128 0 -217 60l-74 -77l-37 35l76 78q-41 59 -41 132q0 94 48 250q40 125 116 186q87 72 235 72q129 0 205 -58l71 73z" horiz-adv-x="729" unicode="Ø" glyph-name="Oslash"/>
<glyph d="M543 756h-116l-94 149h158zM761 706l-119 -458q-38 -147 -110 -204.5t-228 -57.5q-49 0 -90.5 7t-82.5 25t-65 55.5t-24 91.5q0 29 19 115l110 426h183l-107 -416q-21 -80 -21 -117q0 -33 22.5 -57t75.5 -24q58 0 89 38t57 140l113 436h178z" horiz-adv-x="708" unicode="Ù" glyph-name="Ugrave"/>
<glyph d="M674 905l-168 -149h-119l120 149h167zM761 706l-119 -458q-38 -147 -110 -204.5t-228 -57.5q-49 0 -90.5 7t-82.5 25t-65 55.5t-24 91.5q0 29 19 115l110 426h183l-107 -416q-21 -80 -21 -117q0 -33 22.5 -57t75.5 -24q58 0 89 38t57 140l113 436h178z" horiz-adv-x="708" unicode="Ú" glyph-name="Uacute"/>
<glyph d="M627 756h-100l-25 93l-76 -93h-103l123 147h132zM761 706l-119 -458q-38 -147 -110 -204.5t-228 -57.5q-49 0 -90.5 7t-82.5 25t-65 55.5t-24 91.5q0 29 19 115l110 426h183l-107 -416q-21 -80 -21 -117q0 -33 22.5 -57t75.5 -24q58 0 89 38t57 140l113 436h178z" horiz-adv-x="708" unicode="Û" glyph-name="Ucircumflex"/>
<glyph d="M467 889l-31 -121h-115l32 121h114zM651 889l-31 -121h-115l31 121h115zM761 706l-119 -458q-38 -147 -110 -204.5t-228 -57.5q-49 0 -90.5 7t-82.5 25t-65 55.5t-24 91.5q0 29 19 115l110 426h183l-107 -416q-21 -80 -21 -117q0 -33 22.5 -57t75.5 -24q58 0 89 38 t57 140l113 436h178z" horiz-adv-x="708" unicode="Ü" glyph-name="Udieresis"/>
<glyph d="M612 905l-168 -149h-119l120 149h167zM727 706l-347 -464l-62 -242h-182l62 242l-102 464h182l57 -304l213 304h179z" horiz-adv-x="604" unicode="Ý" glyph-name="Yacute"/>
<glyph d="M305 495l-68 -263h72q69 0 112 49.5t43 126.5q0 54 -29 70.5t-91 16.5h-39zM329 589h109q204 0 204 -163q0 -89 -43 -163q-20 -35 -48 -60t-52.5 -37t-61 -18.5t-58 -7.5t-59.5 -1h-107l-36 -139h-184l183 706h184z" horiz-adv-x="625" unicode="Þ" glyph-name="Thorn"/>
<glyph d="M147 0h-162l110 445q18 74 35 113.5t42 68.5q75 88 242 88q227 0 227 -146q0 -43 -28 -96q-30 2 -43 2q-10 0 -22.5 -2t-30 -7.5t-29 -19t-11.5 -33.5q0 -32 53 -78l27 -23q68 -56 68 -132q0 -77 -55 -132q-57 -57 -164 -57q-76 0 -122 25q-60 33 -60 103q0 19 5 41h136 q-4 -24 -4 -33q0 -22 14 -36.5t43 -14.5q32 0 44.5 20t12.5 39q0 16 -9.5 32t-17.5 23.5t-24 20.5l-37 31q-69 57 -69 120q0 39 18 67t46.5 42t46.5 19.5t35 8.5q16 41 16 70q0 34 -22 53t-58 19q-59 0 -94 -51q-18 -27 -37 -99z" horiz-adv-x="667" unicode="ß" glyph-name="germandbls"/>
<glyph d="M407 556h-116l-95 149h158zM303 168l18 74q-78 0 -123 -29q-7 -4 -16 -12t-19 -28.5t-10 -43.5q0 -11 3 -21.5t16 -21t34 -10.5q26 0 49 13.5t34 35.5q5 10 14 43zM452 0h-141q-40 0 -40 38q0 9 2 21q-1 -1 -4.5 -5t-8 -9t-8.5 -9q-55 -47 -134 -47q-12 0 -24.5 1.5 t-32 8t-34 17.5t-25 33.5t-10.5 52.5q0 143 156 181q69 17 190 23l6 21q10 34 10 59q0 50 -55 50q-28 0 -47.5 -15.5t-26 -31.5t-13.5 -41h-159q36 164 255 164q203 0 203 -129q0 -27 -10 -64l-60 -230q-9 -39 -9 -49q0 -21 23 -29z" horiz-adv-x="542" unicode="à" glyph-name="agrave"/>
<glyph d="M535 705l-168 -149h-119l120 149h167zM303 168l18 74q-78 0 -123 -29q-7 -4 -16 -12t-19 -28.5t-10 -43.5q0 -11 3 -21.5t16 -21t34 -10.5q26 0 49 13.5t34 35.5q5 10 14 43zM452 0h-141q-40 0 -40 38q0 9 2 21q-1 -1 -4.5 -5t-8 -9t-8.5 -9q-55 -47 -134 -47 q-12 0 -24.5 1.5t-32 8t-34 17.5t-25 33.5t-10.5 52.5q0 143 156 181q69 17 190 23l6 21q10 34 10 59q0 50 -55 50q-28 0 -47.5 -15.5t-26 -31.5t-13.5 -41h-159q36 164 255 164q203 0 203 -129q0 -27 -10 -64l-60 -230q-9 -39 -9 -49q0 -21 23 -29z" horiz-adv-x="542" unicode="á" glyph-name="aacute"/>
<glyph d="M493 556h-100l-26 93l-76 -93h-103l123 147h132zM303 168l18 74q-78 0 -123 -29q-7 -4 -16 -12t-19 -28.5t-10 -43.5q0 -11 3 -21.5t16 -21t34 -10.5q26 0 49 13.5t34 35.5q5 10 14 43zM452 0h-141q-40 0 -40 38q0 9 2 21q-1 -1 -4.5 -5t-8 -9t-8.5 -9q-55 -47 -134 -47 q-12 0 -24.5 1.5t-32 8t-34 17.5t-25 33.5t-10.5 52.5q0 143 156 181q69 17 190 23l6 21q10 34 10 59q0 50 -55 50q-28 0 -47.5 -15.5t-26 -31.5t-13.5 -41h-159q36 164 255 164q203 0 203 -129q0 -27 -10 -64l-60 -230q-9 -39 -9 -49q0 -21 23 -29z" horiz-adv-x="542" unicode="â" glyph-name="acircumflex"/>
<glyph d="M422 701h88l-12 -46q-8 -32 -15 -49.5t-25 -33.5t-45 -16q-37 0 -87 36l-20 14q-23 17 -34 17q-17 0 -26 -40l-5 -23h-88l11 41q7 26 12.5 40.5t15 31.5t24.5 24.5t36 7.5q35 0 82 -34l25 -18q26 -18 33 -18q9 0 13.5 8.5t10.5 32.5zM303 168l18 74q-78 0 -123 -29 q-7 -4 -16 -12t-19 -28.5t-10 -43.5q0 -11 3 -21.5t16 -21t34 -10.5q26 0 49 13.5t34 35.5q5 10 14 43zM452 0h-141q-40 0 -40 38q0 9 2 21q-1 -1 -4.5 -5t-8 -9t-8.5 -9q-55 -47 -134 -47q-12 0 -24.5 1.5t-32 8t-34 17.5t-25 33.5t-10.5 52.5q0 143 156 181q69 17 190 23 l6 21q10 34 10 59q0 50 -55 50q-28 0 -47.5 -15.5t-26 -31.5t-13.5 -41h-159q36 164 255 164q203 0 203 -129q0 -27 -10 -64l-60 -230q-9 -39 -9 -49q0 -21 23 -29z" horiz-adv-x="542" unicode="ã" glyph-name="atilde"/>
<glyph d="M337 689l-31 -121h-114l31 121h114zM521 689l-31 -121h-115l31 121h115zM303 168l18 74q-78 0 -123 -29q-7 -4 -16 -12t-19 -28.5t-10 -43.5q0 -11 3 -21.5t16 -21t34 -10.5q26 0 49 13.5t34 35.5q5 10 14 43zM452 0h-141q-40 0 -40 38q0 9 2 21q-1 -1 -4.5 -5t-8 -9 t-8.5 -9q-55 -47 -134 -47q-12 0 -24.5 1.5t-32 8t-34 17.5t-25 33.5t-10.5 52.5q0 143 156 181q69 17 190 23l6 21q10 34 10 59q0 50 -55 50q-28 0 -47.5 -15.5t-26 -31.5t-13.5 -41h-159q36 164 255 164q203 0 203 -129q0 -27 -10 -64l-60 -230q-9 -39 -9 -49 q0 -21 23 -29z" horiz-adv-x="542" unicode="ä" glyph-name="adieresis"/>
<glyph d="M384 652q0 17 -11.5 28.5t-28.5 11.5q-18 0 -30 -12.5t-12 -30.5q0 -17 12 -29t29 -12q18 0 29.5 12.5t11.5 31.5zM440 654q0 -42 -28 -71.5t-69 -29.5q-43 0 -70.5 26t-27.5 68q0 43 28.5 71.5t71.5 28.5q40 0 67.5 -26.5t27.5 -66.5zM303 168l18 74q-78 0 -123 -29 q-7 -4 -16 -12t-19 -28.5t-10 -43.5q0 -11 3 -21.5t16 -21t34 -10.5q26 0 49 13.5t34 35.5q5 10 14 43zM452 0h-141q-40 0 -40 38q0 9 2 21q-1 -1 -4.5 -5t-8 -9t-8.5 -9q-55 -47 -134 -47q-12 0 -24.5 1.5t-32 8t-34 17.5t-25 33.5t-10.5 52.5q0 143 156 181q69 17 190 23 l6 21q10 34 10 59q0 50 -55 50q-28 0 -47.5 -15.5t-26 -31.5t-13.5 -41h-159q36 164 255 164q203 0 203 -129q0 -27 -10 -64l-60 -230q-9 -39 -9 -49q0 -21 23 -29z" horiz-adv-x="542" unicode="å" glyph-name="aring"/>
<glyph d="M325 185l12 52h-6q-83 0 -126 -25q-51 -29 -51 -82q0 -62 62 -62q47 0 76 36q20 24 33 81zM495 305h176q13 43 13 70q0 7 -1.5 14t-7 20t-20.5 21.5t-37 8.5q-50 0 -83.5 -47.5t-39.5 -86.5zM813 235h-337l-5 -20q-11 -44 -11 -73q0 -32 18 -55t60 -23q25 0 43 8t30 24.5 t17.5 28.5t13.5 33h157q-18 -72 -86.5 -121t-199.5 -49q-141 0 -188 76q-25 -21 -42.5 -33.5t-60.5 -27.5t-91 -15q-70 0 -103 32t-33 85q0 97 79 149q69 44 227 49l54 2l8 32q9 35 9 47q0 55 -58 55q-31 0 -52 -13.5t-30 -30.5q-9 -15 -16 -43h-159q5 20 10.5 34.5t24 40.5 t45 42.5t76.5 29.5t115 13q62 0 93.5 -12.5t56.5 -38.5q69 51 167 51q52 0 89.5 -13.5t55.5 -31t28.5 -42.5t12 -39t1.5 -29q0 -55 -19 -122z" horiz-adv-x="854" unicode="æ" glyph-name="ae"/>
<glyph d="M542 333h-155q5 25 5 37q0 31 -16.5 50t-48.5 19q-39 0 -68 -29q-34 -34 -60 -124.5t-26 -139.5q0 -82 74 -82q24 0 42.5 10t30 28t16.5 29.5t11 29.5h160q-14 -49 -43.5 -84.5t-67 -54t-73.5 -26.5t-73 -8l-41 1l-13 -34q57 0 83.5 -24.5t26.5 -63.5q0 -37 -21 -65 q-40 -54 -140 -54q-22 0 -63 4l18 69q31 -4 54 -4q67 0 67 43q0 33 -63 33h-28l37 101q-23 5 -37.5 9t-38.5 16.5t-38.5 29t-25.5 46.5t-11 69q0 49 19 122q62 226 292 226q109 0 163.5 -39t54.5 -112q0 -9 -3 -28z" horiz-adv-x="558" unicode="ç" glyph-name="ccedilla"/>
<glyph d="M422 556h-116l-95 149h158zM204 306h177q11 44 11 63q0 32 -18.5 50.5t-50.5 18.5q-26 0 -45.5 -10.5t-33.5 -32.5t-21.5 -39.5t-18.5 -49.5zM525 236h-341q-15 -51 -15 -92q0 -35 18.5 -57.5t57.5 -22.5q78 0 106 94h159q-15 -48 -46.5 -82.5t-63 -50.5t-72 -25.5 t-59 -10.5t-38.5 -1q-216 0 -216 169q0 48 17 114q34 135 107.5 188t187.5 53q214 0 214 -168q0 -49 -16 -108z" horiz-adv-x="562" unicode="è" glyph-name="egrave"/>
<glyph d="M541 705l-168 -149h-119l120 149h167zM204 306h177q11 44 11 63q0 32 -18.5 50.5t-50.5 18.5q-26 0 -45.5 -10.5t-33.5 -32.5t-21.5 -39.5t-18.5 -49.5zM525 236h-341q-15 -51 -15 -92q0 -35 18.5 -57.5t57.5 -22.5q78 0 106 94h159q-15 -48 -46.5 -82.5t-63 -50.5 t-72 -25.5t-59 -10.5t-38.5 -1q-216 0 -216 169q0 48 17 114q34 135 107.5 188t187.5 53q214 0 214 -168q0 -49 -16 -108z" horiz-adv-x="562" unicode="é" glyph-name="eacute"/>
<glyph d="M504 556h-100l-26 93l-76 -93h-103l123 147h132zM204 306h177q11 44 11 63q0 32 -18.5 50.5t-50.5 18.5q-26 0 -45.5 -10.5t-33.5 -32.5t-21.5 -39.5t-18.5 -49.5zM525 236h-341q-15 -51 -15 -92q0 -35 18.5 -57.5t57.5 -22.5q78 0 106 94h159q-15 -48 -46.5 -82.5 t-63 -50.5t-72 -25.5t-59 -10.5t-38.5 -1q-216 0 -216 169q0 48 17 114q34 135 107.5 188t187.5 53q214 0 214 -168q0 -49 -16 -108z" horiz-adv-x="562" unicode="ê" glyph-name="ecircumflex"/>
<glyph d="M353 689l-31 -121h-114l31 121h114zM537 689l-31 -121h-115l31 121h115zM204 306h177q11 44 11 63q0 32 -18.5 50.5t-50.5 18.5q-26 0 -45.5 -10.5t-33.5 -32.5t-21.5 -39.5t-18.5 -49.5zM525 236h-341q-15 -51 -15 -92q0 -35 18.5 -57.5t57.5 -22.5q78 0 106 94h159 q-15 -48 -46.5 -82.5t-63 -50.5t-72 -25.5t-59 -10.5t-38.5 -1q-216 0 -216 169q0 48 17 114q34 135 107.5 188t187.5 53q214 0 214 -168q0 -49 -16 -108z" horiz-adv-x="562" unicode="ë" glyph-name="edieresis"/>
<glyph d="M281 556h-116l-95 149h158zM275 500l-130 -500h-163l129 500h164z" horiz-adv-x="271" unicode="ì" glyph-name="igrave"/>
<glyph d="M414 705l-168 -149h-119l120 149h167zM275 500l-130 -500h-163l129 500h164z" horiz-adv-x="271" unicode="í" glyph-name="iacute"/>
<glyph d="M352 556h-100l-26 93l-76 -93h-103l123 147h132zM275 500l-130 -500h-163l129 500h164z" horiz-adv-x="271" unicode="î" glyph-name="icircumflex"/>
<glyph d="M200 689l-31 -121h-114l31 121h114zM384 689l-31 -121h-115l31 121h115zM275 500l-130 -500h-163l129 500h164z" horiz-adv-x="271" unicode="ï" glyph-name="idieresis"/>
<glyph d="M394 357q0 79 -69 79q-40 0 -72 -34t-53.5 -118.5t-21.5 -132.5q0 -45 20.5 -65.5t49.5 -20.5q50 0 80 52t53 147q13 55 13 93zM561 628l17 -61h-69q44 -97 44 -206q0 -106 -33 -189t-85 -126q-71 -58 -195 -58q-221 0 -221 181q0 18 2 39.5t9.5 56.5t19.5 66.5t36 65.5 t55.5 58.5t80 40.5t108.5 16q32 0 58 -6q-4 28 -22 61h-151l-17 61h133q-25 44 -67 78h151q31 -31 61 -78h85z" unicode="ð" glyph-name="eth"/>
<glyph d="M457 701h88l-12 -46q-8 -32 -15 -49.5t-25 -33.5t-45 -16q-37 0 -87 36l-20 14q-23 17 -34 17q-17 0 -26 -40l-5 -23h-88l11 41q7 26 12.5 40.5t15 31.5t24.5 24.5t36 7.5q35 0 82 -34l25 -18q26 -18 33 -18q9 0 13.5 8.5t10.5 32.5zM454 0h-164l78 303q16 58 16 76 q0 46 -55 46q-35 0 -63 -28q-23 -24 -35 -69l-85 -328h-163l130 500h162l-15 -58q86 67 178 67q47 0 79.5 -26.5t32.5 -76.5q0 -30 -16 -94z" horiz-adv-x="575" unicode="ñ" glyph-name="ntilde"/>
<glyph d="M434 556h-116l-95 149h158zM178 148q0 -45 21.5 -64t49.5 -19q49 0 79.5 52t52.5 147q0 1 2.5 12t5 23.5t4.5 29t2 29.5q0 14 -3 28.5t-20 32t-47 17.5q-68 0 -105 -89q-14 -34 -28 -99t-14 -100zM19 168q0 80 33 164q71 180 286 180q95 0 154 -44t59 -139q0 -37 -12 -90 q-13 -55 -31 -95.5t-51 -78t-89 -57.5t-133 -20q-98 0 -157 43t-59 137z" unicode="ò" glyph-name="ograve"/>
<glyph d="M545 705l-168 -149h-119l120 149h167zM178 148q0 -45 21.5 -64t49.5 -19q49 0 79.5 52t52.5 147q0 1 2.5 12t5 23.5t4.5 29t2 29.5q0 14 -3 28.5t-20 32t-47 17.5q-68 0 -105 -89q-14 -34 -28 -99t-14 -100zM19 168q0 80 33 164q71 180 286 180q95 0 154 -44t59 -139 q0 -37 -12 -90q-13 -55 -31 -95.5t-51 -78t-89 -57.5t-133 -20q-98 0 -157 43t-59 137z" unicode="ó" glyph-name="oacute"/>
<glyph d="M504 556h-100l-26 93l-76 -93h-103l123 147h132zM178 148q0 -45 21.5 -64t49.5 -19q49 0 79.5 52t52.5 147q0 1 2.5 12t5 23.5t4.5 29t2 29.5q0 14 -3 28.5t-20 32t-47 17.5q-68 0 -105 -89q-14 -34 -28 -99t-14 -100zM19 168q0 80 33 164q71 180 286 180q95 0 154 -44 t59 -139q0 -37 -12 -90q-13 -55 -31 -95.5t-51 -78t-89 -57.5t-133 -20q-98 0 -157 43t-59 137z" unicode="ô" glyph-name="ocircumflex"/>
<glyph d="M448 701h88l-12 -46q-8 -32 -15 -49.5t-25 -33.5t-45 -16q-37 0 -87 36l-20 14q-23 17 -34 17q-17 0 -26 -40l-5 -23h-88l11 41q7 26 12.5 40.5t15 31.5t24.5 24.5t36 7.5q35 0 82 -34l25 -18q26 -18 33 -18q9 0 13.5 8.5t10.5 32.5zM178 148q0 -45 21.5 -64t49.5 -19 q49 0 79.5 52t52.5 147q0 1 2.5 12t5 23.5t4.5 29t2 29.5q0 14 -3 28.5t-20 32t-47 17.5q-68 0 -105 -89q-14 -34 -28 -99t-14 -100zM19 168q0 80 33 164q71 180 286 180q95 0 154 -44t59 -139q0 -37 -12 -90q-13 -55 -31 -95.5t-51 -78t-89 -57.5t-133 -20q-98 0 -157 43 t-59 137z" unicode="õ" glyph-name="otilde"/>
<glyph d="M364 689l-31 -121h-114l31 121h114zM548 689l-31 -121h-115l31 121h115zM178 148q0 -45 21.5 -64t49.5 -19q49 0 79.5 52t52.5 147q0 1 2.5 12t5 23.5t4.5 29t2 29.5q0 14 -3 28.5t-20 32t-47 17.5q-68 0 -105 -89q-14 -34 -28 -99t-14 -100zM19 168q0 80 33 164 q71 180 286 180q95 0 154 -44t59 -139q0 -37 -12 -90q-13 -55 -31 -95.5t-51 -78t-89 -57.5t-133 -20q-98 0 -157 43t-59 137z" unicode="ö" glyph-name="odieresis"/>
<glyph d="M419 202l-36 -146h-151l37 146h150zM669 379l-31 -124h-565l31 124h565zM512 578l-36 -147h-151l37 147h150z" horiz-adv-x="724" unicode="÷" glyph-name="divide"/>
<glyph d="M408 344l-234 -234q20 -49 73 -49q43 0 68.5 26.5t45.5 70.5q37 84 47 186zM173 163l234 234q-2 6 -7 14t-22.5 18.5t-40.5 10.5q-49 0 -83 -37q-38 -43 -58 -118t-23 -122zM574 512l-57 -59q43 -43 43 -113q0 -53 -19.5 -121.5t-55.5 -119.5q-78 -111 -238 -111 q-88 0 -158 37l-62 -62l-27 25l61 63q-41 46 -41 107q0 68 30 157t93 139q72 58 194 58q91 0 149 -37l62 63z" unicode="ø" glyph-name="oslash"/>
<glyph d="M421 556h-116l-95 149h158zM106 500h164l-79 -302q-15 -54 -15 -78q0 -43 51 -43q39 0 67 28q24 25 35 67l85 328h163l-130 -500h-162l15 58q-43 -35 -79 -51t-93 -16q-48 0 -83 27t-35 76q0 30 16 94z" horiz-adv-x="572" unicode="ù" glyph-name="ugrave"/>
<glyph d="M552 705l-168 -149h-119l120 149h167zM106 500h164l-79 -302q-15 -54 -15 -78q0 -43 51 -43q39 0 67 28q24 25 35 67l85 328h163l-130 -500h-162l15 58q-43 -35 -79 -51t-93 -16q-48 0 -83 27t-35 76q0 30 16 94z" horiz-adv-x="572" unicode="ú" glyph-name="uacute"/>
<glyph d="M498 556h-100l-26 93l-76 -93h-103l123 147h132zM106 500h164l-79 -302q-15 -54 -15 -78q0 -43 51 -43q39 0 67 28q24 25 35 67l85 328h163l-130 -500h-162l15 58q-43 -35 -79 -51t-93 -16q-48 0 -83 27t-35 76q0 30 16 94z" horiz-adv-x="572" unicode="û" glyph-name="ucircumflex"/>
<glyph d="M347 689l-31 -121h-114l31 121h114zM531 689l-31 -121h-115l31 121h115zM106 500h164l-79 -302q-15 -54 -15 -78q0 -43 51 -43q39 0 67 28q24 25 35 67l85 328h163l-130 -500h-162l15 58q-43 -35 -79 -51t-93 -16q-48 0 -83 27t-35 76q0 30 16 94z" horiz-adv-x="572" unicode="ü" glyph-name="udieresis"/>
<glyph d="M526 705l-168 -149h-119l120 149h167zM552 500l-276 -512q-49 -91 -72 -120q-63 -79 -181 -79q-68 0 -119 12l30 107q25 -10 54 -10q49 0 75.5 29t26.5 79q0 15 -2 55l-28 439h160q2 -187 2 -372l175 372h155z" horiz-adv-x="500" unicode="ý" glyph-name="yacute"/>
<glyph d="M242 367l-47 -184q-11 -47 -11 -56q0 -25 18.5 -40t45.5 -15q38 0 65 30q32 33 57.5 121.5t25.5 134.5q0 36 -15 54t-41 18q-45 0 -98 -63zM94 -206h-164l236 912h165l-70 -264q85 67 166 67q23 0 43.5 -6t41 -21t33 -45t12.5 -73q0 -72 -30 -169.5t-85 -148.5 q-59 -55 -148 -55t-132 66z" unicode="þ" glyph-name="thorn"/>
</font>
</defs>
</svg>
