<?xml version="1.0" encoding="UTF-8" standalone="no"?>
<!DOCTYPE svg  PUBLIC '-//W3C//DTD SVG 1.1//EN'  'http://www.w3.org/Graphics/SVG/1.1/DTD/svg11.dtd'>
<svg xmlns="http://www.w3.org/2000/svg" version="1.1">
<defs>
<font id="Imago-Book" horiz-adv-x="500">
<font-face bbox="-31 -233 890 931" underline-position="-150" panose-1="2 11 5 0 6 0 0 2 0 4" font-weight="400" x-height="500" underline-thickness="50" units-per-em="1000" cap-height="706" descent="-200" ascent="800" font-family="Imago" unicode-range="U+0020-FB02"/>
<missing-glyph/>
<glyph glyph-name="space" unicode=" " horiz-adv-x="271"/>
<glyph glyph-name="exclam" unicode="!" horiz-adv-x="229" d="M175 0h-101v97h101v-97zM74 648h101l-9 -479h-82q-6 308 -10 479z"/>
<glyph glyph-name="quotedbl" unicode='&quot;' horiz-adv-x="323" d="M122 743l-28 -308h-33l-29 308h90zM291 743l-29 -308h-32l-30 308h91z"/>
<glyph glyph-name="numbersign" unicode="#" horiz-adv-x="667" d="M389 410h-99l-13 -97h99zM624 410h-175l-13 -97h168v-54h-175l-35 -259h-59l34 259h-99l-34 -259h-61l35 259h-168v54h175l13 97h-167v57h174l32 241h62l-33 -241h99l31 241h60l-32 -241h168v-57z"/>
<glyph glyph-name="dollar" unicode="$" horiz-adv-x="458" d="M212 747h56v-92q76 0 133 -23v-72q-56 36 -135 36q-20 0 -39 -3.5t-42.5 -12.5t-38 -29.5t-14.5 -49.5q0 -21 9.5 -39t27.5 -32t32.5 -22.5t36.5 -19.5l51 -25q147 -72 147 -186q0 -46 -20 -82.5t-49 -55.5t-55 -29t-44 -10v-114h-56v107q-15 -1 -22 -1q-101 0 -164 26 v79q62 -41 168 -41q66 0 108.5 26.5t42.5 81.5q0 41 -26.5 67.5t-79.5 54.5l-50 26q-33 17 -54.5 31t-44.5 35.5t-34.5 48.5t-11.5 61q0 38 15 68.5t35.5 47t46 28t42.5 15t29 4.5v96z"/>
<glyph glyph-name="percent" unicode="%" horiz-adv-x="792" d="M700 206v31q0 101 -17 134t-52 33q-40 0 -59 -33t-19 -133v-31q0 -57 6 -93.5t18.5 -51.5t22.5 -19t26 -4q37 0 55.5 35t18.5 132zM764 240v-30q0 -70 -12 -116t-34.5 -66.5t-44 -27t-51.5 -6.5t-50 6t-41 26t-32 65.5t-11 116.5v30q0 64 11.5 107.5t33 64.5t45 29 t55.5 8q30 0 51.5 -8t41 -29t29 -63.5t9.5 -106.5zM240 412v31q0 101 -17 134t-52 33q-40 0 -59 -33t-19 -133v-31q0 -57 6 -93.5t18.5 -51.5t22.5 -19t26 -4q37 0 55.5 35t18.5 132zM304 446v-30q0 -70 -12 -116t-34.5 -66.5t-44 -27t-51.5 -6.5t-50 6t-41 26t-32 65.5 t-11 116.5v30q0 64 11.5 107.5t33 64.5t45 29t55.5 8q30 0 51.5 -8t41 -29t29 -63.5t9.5 -106.5zM275 0h-56l301 648h53z"/>
<glyph glyph-name="ampersand" unicode="&amp;" horiz-adv-x="664" d="M283 452q65 29 92.5 57t27.5 65q0 40 -25 65t-66 25q-42 0 -68.5 -23.5t-26.5 -60.5q0 -29 14.5 -57t51.5 -71zM459 99l-225 272q-56 -25 -81 -60t-25 -86q0 -77 53.5 -125.5t139.5 -48.5q77 0 138 48zM615 361v-71q0 -58 -12.5 -94.5t-45.5 -74.5l104 -121h-119l-47 55 q-55 -38 -100.5 -51.5t-107.5 -13.5q-115 0 -185 59t-70 157q0 69 36.5 116.5t129.5 90.5q-68 79 -68 151q0 69 51.5 111.5t134.5 42.5q76 0 122.5 -39t46.5 -103q0 -60 -38.5 -92.5t-129.5 -73.5l197 -237q18 32 18 110v78h83z"/>
<glyph glyph-name="quotesingle" unicode="&apos;" horiz-adv-x="154" d="M122 743l-28 -308h-33l-29 308h90z"/>
<glyph glyph-name="parenleft" unicode="(" horiz-adv-x="333" d="M333 706v-53h-10q-148 0 -178 -151q-13 -66 -13 -248q0 -73 4 -123t16.5 -94.5t34.5 -70t58 -40t88 -14.5v-53h-7q-38 0 -61.5 2t-58 13.5t-61.5 33.5q-58 48 -76.5 134.5t-18.5 235.5q0 176 20 250q48 178 246 178h17z"/>
<glyph glyph-name="parenright" unicode=")" horiz-adv-x="333" d="M0 706h7q42 0 64.5 -1.5t56.5 -13t62 -34.5q57 -48 75 -133.5t18 -236.5q0 -187 -17 -250q-48 -178 -249 -178h-17v53h10q150 0 180 150q11 56 11 249q0 73 -4 123t-16.5 94.5t-34.5 70t-58 40t-88 14.5v53z"/>
<glyph glyph-name="asterisk" unicode="*" horiz-adv-x="354" d="M331 603l-101 -56l99 -53l-29 -53l-97 59q2 -100 2 -114h-59l3 114l-95 -59l-30 51l98 55l-98 49l28 54l97 -55q-2 86 -3 111h59l-2 -111l97 58z"/>
<glyph glyph-name="plus" unicode="+" horiz-adv-x="724" d="M631 338v-76h-225v-230h-88v230h-224v76h224v229h88v-229h225z"/>
<glyph glyph-name="comma" unicode="," horiz-adv-x="208" d="M155 4l-54 -115h-55l55 111h-51v97h105v-93z"/>
<glyph glyph-name="hyphen" unicode="-" horiz-adv-x="396" d="M346 224h-296v67h296v-67z"/>
<glyph glyph-name="period" unicode="." horiz-adv-x="208" d="M155 0h-101v97h101v-97z"/>
<glyph glyph-name="slash" unicode="/" horiz-adv-x="354" d="M354 706l-278 -706h-76l278 706h76z"/>
<glyph glyph-name="zero" unicode="0" d="M364 315v18q0 112 -13.5 171.5t-35.5 77.5t-61 18q-43 0 -67.5 -21.5t-37.5 -81t-13 -168.5v-16q0 -154 25 -209t90 -55q64 0 88.5 56t24.5 210zM451 331v-15q0 -184 -49 -254.5t-158 -70.5q-48 0 -81 12.5t-60.5 46t-40.5 98t-13 162.5v21q0 99 15 165t44.5 100t64.5 47 t85 13t83 -13t59.5 -47.5t38.5 -99.5t12 -165z"/>
<glyph glyph-name="one" unicode="1" d="M319 0h-89v545h-123v57q92 14 174 41q35 13 38 15v-658z"/>
<glyph glyph-name="two" unicode="2" d="M448 0h-405v73l121 130q128 138 162 187t34 104q0 43 -20.5 68t-41 30.5t-43.5 5.5q-58 0 -89.5 -35t-31.5 -89v-19h-87v30q4 74 57 122.5t160 48.5q87 0 137.5 -41.5t50.5 -117.5q0 -59 -26 -110q-13 -25 -41.5 -60.5t-49 -57.5t-61.5 -63.5t-47 -47.5l-82 -85h303v-73z "/>
<glyph glyph-name="three" unicode="3" d="M31 175h91v-15q0 -58 34 -84.5t87 -26.5q40 0 67.5 15t38.5 39t14.5 41t3.5 34q0 61 -32 93.5t-91 32.5h-79v63h18q60 0 87 5.5t47 26.5q31 33 31 90q0 62 -28 87t-79 25q-59 0 -87 -38q-23 -31 -23 -86v-15h-87q0 43 6.5 72t28.5 55q56 67 174 67q82 0 134 -37t52 -122 q0 -122 -121 -158q139 -17 139 -156q0 -32 -9.5 -62t-32 -61t-68.5 -50t-111 -19q-205 0 -205 171v13z"/>
<glyph glyph-name="four" unicode="4" d="M464 147h-70v-147h-85v147h-276v43q82 181 101 226q46 108 94 232h92q-70 -162 -106 -242q-39 -87 -88 -189h183v279h85v-279h70v-70z"/>
<glyph glyph-name="five" unicode="5" d="M439 648v-74h-283l-6 -182q49 49 131 49q21 0 42 -4.5t46.5 -18.5t44.5 -37t32 -64t13 -95q0 -120 -62.5 -175.5t-155.5 -55.5q-57 0 -98 16.5t-61.5 43t-29.5 53t-9 52.5v19h88v-4q0 -10 1 -21t7.5 -30.5t17.5 -34t33.5 -25.5t52.5 -11q124 0 124 176q0 153 -111 153 q-84 0 -111 -81h-74l14 351h354z"/>
<glyph glyph-name="six" unicode="6" d="M145 201q0 -21 4.5 -44t16 -50t36 -44t58.5 -17q118 0 118 160q0 148 -111 148q-17 0 -33.5 -4.5t-38.5 -18.5t-36 -47.5t-14 -82.5zM466 483h-85q0 48 -25.5 81.5t-83.5 33.5q-78 0 -110 -76q-21 -51 -23 -174q59 66 149 66q59 0 92 -21t56 -56q29 -44 29 -133 q0 -95 -50 -152q-54 -61 -159 -61q-107 0 -156 72t-49 233t34 241q20 46 65.5 82.5t126.5 36.5q57 0 97 -17.5t58.5 -46.5t26 -55.5t7.5 -53.5z"/>
<glyph glyph-name="seven" unicode="7" d="M40 575v73h421v-73q-79 -175 -131 -282q-48 -99 -148 -293h-100q100 186 159 302q52 104 130 273h-331z"/>
<glyph glyph-name="eight" unicode="8" d="M143 479q0 -33 11.5 -56t30 -33t34 -14t31.5 -4q106 0 106 123q0 32 -10.5 54.5t-27.5 33.5t-33 15.5t-31 4.5q-50 0 -80.5 -31t-30.5 -93zM133 177q0 -60 29.5 -96.5t88.5 -36.5q63 0 94 43q25 35 25 102q0 61 -30 95t-86 34q-11 0 -22.5 -1.5t-30.5 -9.5t-33 -22 t-24.5 -42t-10.5 -66zM334 346q40 -5 67.5 -25.5t38.5 -48t14.5 -47.5t3.5 -38q0 -196 -210 -196q-92 0 -149 46t-57 140q0 43 13 77t33.5 52t39.5 27.5t38 12.5q-51 10 -79 47t-28 92q0 83 59 131q51 40 136 40q83 0 135 -39t52 -121q0 -121 -107 -150z"/>
<glyph glyph-name="nine" unicode="9" d="M355 445q0 76 -30.5 116.5t-84.5 40.5q-119 0 -119 -154q0 -155 111 -155q56 0 89.5 37t33.5 115zM33 165h84v-5q0 -12 4 -27.5t14 -36t33.5 -34t57.5 -13.5q70 0 102 62q30 55 31 187q-66 -64 -148 -64q-50 0 -86 17.5t-55 48.5t-27.5 66t-8.5 78q0 106 56 159t153 53 q104 0 155 -69t51 -221q0 -64 -4.5 -113t-18.5 -100.5t-38 -85t-66 -55t-100 -21.5q-94 0 -141.5 48t-47.5 120v6z"/>
<glyph glyph-name="colon" unicode=":" horiz-adv-x="229" d="M175 0h-100v97h100v-97zM175 403h-100v97h100v-97z"/>
<glyph glyph-name="semicolon" unicode=";" horiz-adv-x="229" d="M176 4l-54 -115h-55l55 111h-51v97h105v-93zM176 403h-100v97h100v-97z"/>
<glyph glyph-name="less" unicode="&lt;" horiz-adv-x="724" d="M579 23l-465 234v87l465 235v-86l-383 -190l383 -189v-91z"/>
<glyph glyph-name="equal" unicode="=" horiz-adv-x="724" d="M625 162h-526v77h526v-77zM625 350h-526v78h526v-78z"/>
<glyph glyph-name="greater" unicode="&gt;" horiz-adv-x="724" d="M610 256l-466 -235v86l383 190l-383 189v91l466 -233v-88z"/>
<glyph glyph-name="question" unicode="?" horiz-adv-x="479" d="M237 0h-97v97h97v-97zM223 172h-76v124q97 6 146 47q54 45 54 127q0 59 -30 96t-88 37q-52 0 -79 -32q-24 -28 -24 -90v-39h-86v38q0 26 3.5 47t15.5 47t33 43.5t59.5 29.5t90.5 12q90 0 143.5 -47t53.5 -136q0 -55 -22.5 -99.5t-57.5 -70t-69.5 -40t-66.5 -18.5v-76z "/>
<glyph glyph-name="at" unicode="@" horiz-adv-x="888" d="M539 345q0 53 -23 81.5t-64 28.5q-56 0 -98.5 -66.5t-42.5 -152.5q0 -50 22 -76t61 -26q56 0 100.5 65t44.5 146zM577 494h67l-49 -226q-12 -57 -12 -86q0 -52 34 -52q36 0 71.5 46t57.5 113t22 128q0 113 -68.5 178t-187.5 65q-172 0 -283 -119.5t-111 -297.5 q0 -143 87.5 -228t241.5 -85q189 0 336 144l37 -42q-91 -79 -179 -117.5t-191 -38.5q-178 0 -283 100.5t-105 265.5q0 205 127.5 337.5t326.5 132.5q140 0 224 -77t84 -215q0 -87 -32 -168t-86 -131t-113 -50q-79 0 -82 88q-67 -87 -147 -87q-59 0 -94.5 44t-35.5 117 q0 112 64.5 197.5t148.5 85.5q44 0 72 -19t43 -69z"/>
<glyph glyph-name="A" unicode="A" horiz-adv-x="646" d="M427 341l-96 286l-109 -286h205zM645 0h-101l-94 276h-253l-107 -276h-89l283 706h114z"/>
<glyph glyph-name="B" unicode="B" horiz-adv-x="604" d="M171 402h85q56 0 87 8t51 31q28 32 28 84q0 71 -46 99q-20 13 -44 16t-81 3h-80v-241zM171 339v-276h133q25 0 44.5 2.5t43.5 10.5t39.5 22.5t26.5 40.5t11 62q0 81 -58 116q-25 15 -57 18.5t-104 3.5h-79zM77 0v706h215q66 0 115 -13t79 -54q30 -43 30 -101 q0 -103 -101 -156q81 -18 119 -74q31 -47 31 -111q0 -47 -21 -90t-59 -69q-56 -38 -164 -38h-244z"/>
<glyph glyph-name="C" unicode="C" horiz-adv-x="625" d="M595 487h-94v8q0 72 -40.5 118t-122.5 46q-60 0 -99.5 -28t-58 -80.5t-24.5 -104t-6 -123.5q0 -32 2 -57.5t7 -60.5t17.5 -60.5t31.5 -49t50 -36t72 -12.5q86 0 129 50t47 121h96q-10 -105 -77 -168t-203 -63q-82 0 -137.5 26t-84 76.5t-40 108t-11.5 135.5 q0 91 14 158.5t46 120.5t90 80.5t142 27.5q130 0 192 -60t62 -159v-14z"/>
<glyph glyph-name="D" unicode="D" horiz-adv-x="688" d="M172 68h110q140 0 199 62.5t59 229.5q0 158 -58.5 218.5t-178.5 60.5h-131v-571zM77 0v706h260q155 0 226.5 -83t71.5 -270q0 -175 -75.5 -264t-251.5 -89h-231z"/>
<glyph glyph-name="E" unicode="E" horiz-adv-x="521" d="M494 0h-417v706h390v-67h-293v-238h269v-67h-269v-266h320v-68z"/>
<glyph glyph-name="F" unicode="F" horiz-adv-x="479" d="M465 639h-291v-256h273v-68h-273v-315h-97v706h388v-67z"/>
<glyph glyph-name="G" unicode="G" horiz-adv-x="667" d="M600 0h-85v55q-68 -68 -198 -68q-138 0 -204.5 81.5t-66.5 257.5q0 64 5.5 115t24 105.5t49.5 90.5t85.5 59.5t127.5 23.5q118 0 186 -55t68 -168v-10h-94v8q0 18 -2.5 36.5t-13 42.5t-27 42t-47.5 30.5t-73 12.5q-99 0 -143.5 -79t-44.5 -255q0 -65 8 -112.5t28 -86.5 t57.5 -59t92.5 -20q77 0 130 37t53 118v89h-160v68h244v-359z"/>
<glyph glyph-name="H" unicode="H" horiz-adv-x="667" d="M590 0h-96v340h-320v-340h-97v706h97v-299h320v299h96v-706z"/>
<glyph glyph-name="I" unicode="I" horiz-adv-x="250" d="M173 0h-96v706h96v-706z"/>
<glyph glyph-name="J" unicode="J" horiz-adv-x="417" d="M247 706h97v-515q0 -86 -40 -137q-51 -64 -159 -64q-70 0 -141 32v77q73 -40 129 -40q43 0 72 22q26 20 34 53.5t8 99.5v472z"/>
<glyph glyph-name="K" unicode="K" horiz-adv-x="604" d="M620 0h-116l-250 353l-83 -86v-267h-94v706h94v-336l308 336h111l-270 -287z"/>
<glyph glyph-name="L" unicode="L" horiz-adv-x="521" d="M494 0h-417v706h97v-638h320v-68z"/>
<glyph glyph-name="M" unicode="M" horiz-adv-x="875" d="M807 0h-91l-8 658l-238 -658h-76l-235 658q-10 -642 -10 -658h-85l15 706h157l200 -582l205 582h159z"/>
<glyph glyph-name="N" unicode="N" horiz-adv-x="708" d="M632 0h-105l-369 585l3 -585h-84v706h109l367 -588l-4 588h83v-706z"/>
<glyph glyph-name="O" unicode="O" horiz-adv-x="688" d="M150 323q0 -59 7 -103t26 -86t58.5 -64.5t98.5 -22.5q114 0 155.5 79.5t41.5 250.5q0 52 -4 90t-15.5 76t-31.5 62t-54.5 39t-81.5 15q-53 0 -90.5 -18t-58.5 -45.5t-33 -74.5t-15 -90.5t-3 -107.5zM49 318q0 49 2.5 87.5t10 82t20.5 75.5t36 63t54 50.5t76 31.5t102 12 q152 0 220 -82.5t68 -260.5q0 -70 -6.5 -123t-25 -105.5t-50.5 -86t-85.5 -54.5t-126.5 -21q-149 0 -222 78t-73 253z"/>
<glyph glyph-name="P" unicode="P" horiz-adv-x="542" d="M174 337h93q30 0 49 2t43 10t37.5 23.5t23 44.5t9.5 70q0 74 -30 112.5t-104 38.5h-121v-301zM174 269v-269h-97v706h231q32 0 52.5 -2t49 -11.5t50.5 -27.5q66 -55 66 -171q0 -127 -73 -183q-25 -19 -60.5 -29t-60.5 -11.5t-66 -1.5h-92z"/>
<glyph glyph-name="Q" unicode="Q" horiz-adv-x="688" d="M151 347q0 -36 0.5 -59t4.5 -58t11.5 -57.5t21.5 -48.5t34 -41.5t50.5 -25.5t69.5 -10q107 0 151.5 75t44.5 240q0 55 -4 96t-16 80.5t-32.5 64.5t-55 40.5t-82.5 15.5q-52 0 -89 -17.5t-58 -44t-32.5 -70t-15 -84t-3.5 -96.5zM678 -106h-93q-24 107 -106 117 q-66 -24 -138 -24q-88 0 -151.5 30.5t-93.5 84.5q-24 44 -35 96.5t-11 143.5q0 191 66 284.5t236 93.5q145 0 215.5 -78.5t70.5 -268.5q0 -248 -90 -313q65 -12 95 -60t35 -102v-4z"/>
<glyph glyph-name="R" unicode="R" horiz-adv-x="604" d="M171 376h122q78 0 121 27.5t43 105.5q0 54 -27 87q-23 28 -54 35t-106 7h-99v-262zM77 706h257q83 0 125.5 -19.5t65.5 -55.5q28 -44 28 -107q0 -42 -13 -76t-28 -52t-38 -32t-31.5 -17t-19.5 -6q48 -16 69.5 -46t41.5 -104l11 -41q3 -12 9.5 -37.5t8.5 -32t7 -22 t8.5 -22t10 -16.5t14.5 -20h-101q-17 16 -26 40.5t-22 83.5q-8 38 -13 56.5t-15 44t-21 37.5t-29 25t-42.5 17.5t-58.5 4.5h-104v-309h-94v706z"/>
<glyph glyph-name="S" unicode="S" horiz-adv-x="542" d="M490 521h-89q0 137 -126 137q-76 0 -114 -46q-23 -28 -23 -69q0 -49 31 -73.5t104 -53.5l48 -19q100 -40 142 -85.5t42 -119.5q0 -17 -2.5 -35.5t-16.5 -51t-37.5 -56.5t-72.5 -42.5t-116 -18.5q-241 0 -241 207v13h96v-16q0 -47 17 -78.5t44.5 -44t47.5 -16.5t41 -4 q77 0 110.5 38.5t33.5 92.5q0 29 -10.5 51.5t-33.5 38.5t-41 24.5t-51 21.5l-60 23q-35 14 -57 25t-52 33.5t-45 55.5t-15 76q0 65 34 110q58 79 202 79q133 0 181 -74q30 -44 30 -104q0 -12 -1 -19z"/>
<glyph glyph-name="T" unicode="T" d="M500 639h-201v-639h-96v639h-203v67h500v-67z"/>
<glyph glyph-name="U" unicode="U" horiz-adv-x="667" d="M596 706v-456q0 -37 -2.5 -62.5t-18.5 -65t-46 -69.5q-26 -26 -78 -45.5t-122 -19.5q-126 0 -191 56q-42 36 -54.5 88t-12.5 122v452h96v-464q0 -193 172 -193q54 0 90.5 18.5t53.5 52t23 67t6 77.5v442h84z"/>
<glyph glyph-name="V" unicode="V" horiz-adv-x="583" d="M350 0h-116l-234 706h103l194 -617l197 617h89z"/>
<glyph glyph-name="W" unicode="W" horiz-adv-x="854" d="M684 0h-142l-117 548l-140 -548h-144l-141 706h97l121 -648l173 648h81l148 -646l150 646h83z"/>
<glyph glyph-name="X" unicode="X" horiz-adv-x="604" d="M604 0h-110l-192 303l-197 -303h-105l257 376l-212 330h112l156 -246l158 246h99l-213 -316z"/>
<glyph glyph-name="Y" unicode="Y" horiz-adv-x="604" d="M604 706l-248 -448v-258h-92v258l-264 448h113l203 -363l192 363h96z"/>
<glyph glyph-name="Z" unicode="Z" horiz-adv-x="604" d="M567 0h-538v66l427 573h-381v67h491v-70l-426 -569h427v-67z"/>
<glyph glyph-name="bracketleft" unicode="[" horiz-adv-x="333" d="M313 -141h-206v847h206v-54h-130v-739h130v-54z"/>
<glyph glyph-name="backslash" unicode="\" horiz-adv-x="354" d="M354 0h-76l-278 706h77z"/>
<glyph glyph-name="bracketright" unicode="]" horiz-adv-x="333" d="M227 -141h-206v54h129v739h-129v54h206v-847z"/>
<glyph glyph-name="asciicircum" unicode="^" horiz-adv-x="724" d="M609 287h-92l-155 337l-157 -337h-90l203 419h88z"/>
<glyph glyph-name="underscore" unicode="_" d="M510 -206h-520v59h520v-59z"/>
<glyph glyph-name="grave" unicode="`" horiz-adv-x="271" d="M224 559h-73l-104 136h99z"/>
<glyph glyph-name="a" unicode="a" d="M344 180v75q-133 -15 -169 -37q-45 -26 -45 -81q0 -42 24 -66t67 -24q45 0 77 21q46 30 46 112zM451 0h-66q-24 0 -32.5 9t-8.5 32v14q-57 -65 -148 -65q-73 0 -115 37t-42 108q0 81 63 117q59 33 242 50v53q0 51 -22.5 75.5t-72.5 24.5q-111 0 -111 -107v-7h-81v15 q0 82 57 118.5t141 36.5q110 0 150 -57q23 -33 23 -108v-273q0 -57 23 -61v-12z"/>
<glyph glyph-name="b" unicode="b" horiz-adv-x="542" d="M157 291v-94q0 -48 10.5 -79.5t45.5 -52.5q32 -19 66 -19q72 0 102 55t30 158q0 196 -118 196q-70 0 -109 -53q-27 -36 -27 -111zM157 0h-85v706h86v-275q64 80 164 80q178 0 178 -254q0 -53 -9 -97t-30.5 -84t-62 -63t-97.5 -23q-85 0 -144 67v-57z"/>
<glyph glyph-name="c" unicode="c" horiz-adv-x="495" d="M458 331h-84q0 18 -4 36t-14.5 39.5t-35 35t-59.5 13.5q-40 0 -67.5 -20.5t-40 -54.5t-17.5 -66t-5 -68q0 -23 1.5 -43.5t9 -51t20 -52t37 -37.5t58.5 -16q103 0 115 122h86q0 -11 -2 -26t-13.5 -44t-31 -51.5t-60 -39.5t-94.5 -17q-104 0 -160 64t-56 193q0 52 10 95.5 t33.5 83t69.5 62.5t110 23q87 0 140.5 -42.5t53.5 -137.5z"/>
<glyph glyph-name="d" unicode="d" horiz-adv-x="542" d="M386 200v133q0 66 -37 94t-81 28q-137 0 -137 -203q0 -206 126 -206q67 0 102 45q27 35 27 109zM469 0h-83v61q-64 -71 -156 -71q-57 0 -97 24t-58.5 65t-26 79.5t-7.5 83.5q0 134 54.5 201.5t153.5 67.5q85 0 137 -64v259h83v-706z"/>
<glyph glyph-name="e" unicode="e" d="M134 304h245q-5 151 -114 151q-56 0 -91.5 -39t-39.5 -112zM131 252v-5q0 -27 1 -46t8 -51t20 -52t39 -36t63 -16q15 0 31 4t35.5 14t33 33t15.5 56h85q0 -68 -54 -115.5t-150 -47.5q-113 0 -165.5 66t-52.5 180q0 128 54.5 201.5t169.5 73.5q200 0 200 -234v-25h-333z "/>
<glyph glyph-name="f" unicode="f" horiz-adv-x="292" d="M181 0h-86v449h-76v51h76v47q0 161 140 161q45 0 71 -15v-60q-30 16 -56 16q-44 0 -56.5 -22.5t-12.5 -72.5v-54h91v-51h-91v-449z"/>
<glyph glyph-name="g" unicode="g" horiz-adv-x="542" d="M387 180v149q0 56 -31.5 91t-87.5 35q-59 0 -98.5 -46.5t-39.5 -150.5q0 -101 31 -151.5t100 -50.5q54 0 90 32.5t36 91.5zM470 500v-469q0 -239 -232 -239q-81 0 -137.5 35.5t-56.5 116.5v14h81q0 -52 31.5 -81t89.5 -29q140 0 140 172v45q-56 -65 -155 -65 q-46 0 -81.5 17t-55.5 42.5t-32.5 60.5t-16.5 65t-4 63q0 121 53.5 192t151.5 71q37 0 68 -12.5t43.5 -23t29.5 -28.5v53h83z"/>
<glyph glyph-name="h" unicode="h" horiz-adv-x="542" d="M469 0h-85v321q0 69 -24 101.5t-77 32.5t-89.5 -29.5t-36.5 -86.5v-339h-85v706h85v-262q73 67 164 67q74 0 111 -41.5t37 -115.5v-354z"/>
<glyph glyph-name="i" unicode="i" horiz-adv-x="229" d="M157 0h-85v500h85v-500zM157 608h-85v87h85v-87z"/>
<glyph glyph-name="j" unicode="j" horiz-adv-x="229" d="M157 608h-86v87h86v-87zM157 500v-523q0 -30 -2.5 -52.5t-11.5 -48.5t-24.5 -43t-43.5 -28.5t-67 -11.5q-21 0 -39 4v62q21 -3 31 -3q39 0 55 27t16 82v535h86z"/>
<glyph glyph-name="k" unicode="k" d="M508 0h-103l-175 257l-73 -78v-179h-85v706h85v-436l202 230h97l-168 -182z"/>
<glyph glyph-name="l" unicode="l" horiz-adv-x="229" d="M157 0h-85v706h85v-706z"/>
<glyph glyph-name="m" unicode="m" horiz-adv-x="792" d="M719 0h-85v339q0 116 -85 116q-27 0 -52 -13q-58 -29 -58 -101v-341h-86v341q0 114 -86 114q-34 0 -63 -20q-21 -15 -31.5 -35.5t-12.5 -37t-2 -46.5v-316h-86v500h86v-57q71 68 148 68q33 0 57.5 -9.5t38 -24.5t19 -24.5t8.5 -19.5q72 78 158 78q67 0 99.5 -40.5 t32.5 -108.5v-362z"/>
<glyph glyph-name="n" unicode="n" horiz-adv-x="542" d="M469 0h-85v312q0 86 -29 116q-26 27 -72 27q-54 0 -90 -30.5t-36 -83.5v-341h-85v500h85v-56q73 67 164 67q47 0 83 -20q41 -23 53 -59.5t12 -92.5v-339z"/>
<glyph glyph-name="o" unicode="o" horiz-adv-x="521" d="M131 247q0 -28 1.5 -50t9 -52.5t21 -50.5t39 -35t61.5 -15q127 0 127 211q0 201 -125 201q-134 0 -134 -209zM41 245q0 266 224 266q115 0 165 -63.5t50 -183.5q0 -48 -5 -86t-20 -74t-39 -60.5t-64 -39t-94 -14.5q-217 0 -217 255z"/>
<glyph glyph-name="p" unicode="p" horiz-adv-x="542" d="M152 299v-131q0 -66 37 -94t82 -28q137 0 137 203q0 206 -127 206q-29 0 -57.5 -12t-44.5 -33q-27 -33 -27 -111zM69 500h84v-61q57 72 156 72q46 0 81 -17t55 -43t32.5 -61.5t16.5 -66.5t4 -65q0 -51 -9 -95t-31 -85t-65 -64.5t-104 -23.5q-43 0 -81 17t-55 46v-259h-84 v706z"/>
<glyph glyph-name="q" unicode="q" horiz-adv-x="542" d="M384 180v142q0 60 -34 96.5t-89 36.5q-130 0 -130 -203q0 -208 134 -208q119 0 119 136zM385 500h84v-706h-84v259q-49 -64 -151 -64q-19 0 -36.5 2.5t-48.5 17t-52.5 40t-38.5 76.5t-17 121q0 78 19 133.5t51.5 82.5t64 38t66.5 11q86 0 143 -68v57z"/>
<glyph glyph-name="r" unicode="r" horiz-adv-x="333" d="M159 0h-87v500h87v-65q51 74 122 74q31 0 59 -19v-78q-40 28 -83 28q-30 0 -51.5 -10.5t-30.5 -27.5t-12.5 -30.5t-3.5 -26.5v-345z"/>
<glyph glyph-name="s" unicode="s" horiz-adv-x="437" d="M395 357h-81v14q0 33 -21.5 60t-72.5 27q-47 0 -71.5 -22t-24.5 -53q0 -54 97 -81l52 -15q66 -19 99 -53.5t33 -92.5q0 -64 -45.5 -107.5t-143.5 -43.5t-141.5 41.5t-43.5 110.5v13h86v-13q0 -40 23.5 -68t83.5 -28q51 0 74 22t23 56q0 22 -7.5 38t-24 26t-28.5 15 t-35 12l-64 19q-117 34 -117 128q0 62 42 105.5t136 43.5q74 0 123 -35t49 -113v-6z"/>
<glyph glyph-name="t" unicode="t" horiz-adv-x="292" d="M171 449l-1 -302q0 -47 12.5 -70t52.5 -23q21 0 57 12v-58q-51 -17 -94 -17q-48 0 -78 22q-25 18 -31.5 45t-6.5 91q1 264 2 300h-75v51h75v109l87 15v-124h94v-51h-94z"/>
<glyph glyph-name="u" unicode="u" horiz-adv-x="542" d="M469 0h-85v58q-74 -68 -165 -68q-58 0 -96 29q-34 26 -44.5 63t-10.5 90v328h85v-305q0 -32 3 -53.5t12.5 -46t31.5 -37t56 -12.5q26 0 54.5 10t44.5 26q29 30 29 80v338h85v-500z"/>
<glyph glyph-name="v" unicode="v" horiz-adv-x="437" d="M438 500l-182 -500h-91l-165 500h94l125 -410l141 410h78z"/>
<glyph glyph-name="w" unicode="w" horiz-adv-x="708" d="M708 500l-148 -500h-92l-111 384l-121 -384h-91l-145 500h91l108 -411l128 411h79l114 -411l113 411h75z"/>
<glyph glyph-name="x" unicode="x" horiz-adv-x="437" d="M438 0h-103l-125 201l-127 -201h-83l172 255l-154 245h102l105 -171l106 171h78l-148 -224z"/>
<glyph glyph-name="y" unicode="y" horiz-adv-x="437" d="M438 500l-203 -566q-12 -33 -22 -53.5t-28.5 -42.5t-46.5 -32.5t-66 -10.5q-33 0 -62 8v69q36 -9 57 -9q43 0 64.5 23t38.5 70l14 40l-184 504h96l133 -397l130 397h79z"/>
<glyph glyph-name="z" unicode="z" horiz-adv-x="417" d="M399 0h-382v58l282 382h-258v60h357v-60l-281 -380h282v-60z"/>
<glyph glyph-name="braceleft" unicode="{" horiz-adv-x="313" d="M305 707v-29q-67 -8 -89.5 -37t-22.5 -98v-123q0 -54 -19.5 -86t-62.5 -49q44 -17 63 -49t19 -89v-107q0 -85 22 -114t90 -39v-28q-111 0 -150.5 34.5t-39.5 141.5v110q0 59 -14.5 84.5t-58.5 41.5v30q41 12 57 37t16 78v130q0 90 43 125.5t147 35.5z"/>
<glyph glyph-name="bar" unicode="|" horiz-adv-x="308" d="M193 -141h-78v847h78v-847z"/>
<glyph glyph-name="braceright" unicode="}" horiz-adv-x="313" d="M8 679v28q111 0 150.5 -34.5t39.5 -141.5v-110q0 -59 14.5 -84.5t58.5 -41.5v-30q-41 -12 -57 -37t-16 -78v-130q0 -90 -43 -125.5t-147 -35.5v29q67 8 89.5 37t22.5 98v123q0 54 19.5 86t62.5 49q-44 17 -63 49t-19 89v107q0 85 -22 114t-90 39z"/>
<glyph glyph-name="asciitilde" unicode="~" horiz-adv-x="724" d="M609 380l42 -66q-43 -55 -81.5 -78t-83.5 -23t-120 38l-35 18q-59 31 -104 31q-26 0 -49 -14t-53 -55l-9 -12l-42 67q37 54 73.5 78.5t84.5 24.5q46 0 133 -41l45 -21q57 -26 79 -26q59 0 120 79z"/>
<glyph glyph-name="uni00A0" unicode=" " horiz-adv-x="271"/>
<glyph glyph-name="exclamdown" unicode="¡" horiz-adv-x="229" d="M155 0h-101q9 454 10 478h82zM155 550h-101v98h101v-98z"/>
<glyph glyph-name="cent" unicode="¢" horiz-adv-x="479" d="M241 605h54v-95q162 -11 162 -178h-86q0 64 -28.5 94.5t-70.5 30.5q-136 0 -136 -206q0 -207 128 -207q34 0 57.5 16t33.5 40.5t13 40t4 28.5h86q-2 -49 -20 -84.5t-45.5 -54t-50.5 -27.5t-47 -12v-111h-54v110q-98 9 -146.5 72t-48.5 187q0 125 50 186.5t145 74.5v95z "/>
<glyph glyph-name="sterling" unicode="£" horiz-adv-x="521" d="M396 246h-181q-17 -74 -41 -110.5t-70 -65.5h395v-70h-499v62q31 3 56.5 24t40.5 51.5t23 57t12 51.5h-104v61h112q25 131 48.5 193t77.5 107q59 49 144 49q41 0 90 -13v-70q-59 22 -95 22q-34 0 -61 -15.5t-44.5 -38t-32 -63.5t-22.5 -77.5t-19 -93.5h170v-61z"/>
<glyph glyph-name="currency" unicode="¤" horiz-adv-x="672" d="M521 338q0 82 -52.5 136t-131.5 54t-133 -54t-54 -134q0 -81 54 -135.5t135 -54.5q77 0 129.5 54t52.5 134zM621 568l-75 -75q51 -76 51 -154q0 -84 -53 -155l76 -77l-55 -54l-75 77q-43 -30 -76 -41t-79 -11t-80 11.5t-74 40.5l-76 -74l-54 53l76 75q-53 74 -53 156 q0 81 53 154l-74 74l54 54l74 -73q72 52 155 52q91 0 155 -52l75 74z"/>
<glyph glyph-name="yen" unicode="¥" horiz-adv-x="579" d="M567 648l-159 -289h119v-52h-148l-39 -69h187v-53h-188v-185h-85v185h-202v53h201l-40 69h-161v52h129l-169 289h105l185 -332l175 332h90z"/>
<glyph glyph-name="brokenbar" unicode="¦" horiz-adv-x="308" d="M193 -141h-78v363h78v-363zM193 343h-78v363h78v-363z"/>
<glyph glyph-name="section" unicode="§" horiz-adv-x="375" d="M199 419l-23 18q-35 26 -43 33q-30 -30 -30 -63q0 -19 11 -37t23 -29t37 -32l22 -18q47 -35 58 -45q29 39 29 65q0 21 -11.5 39.5t-26 31t-46.5 37.5zM39 14v72q62 -40 122 -40q44 0 64.5 22.5t20.5 48.5q0 25 -16.5 44.5t-60.5 51.5l-50 37q-25 18 -40.5 33t-29.5 42 t-14 57q0 63 66 119q-41 41 -41 90q0 60 48.5 92t113.5 32q55 0 91 -20v-58q-49 23 -91 23q-43 0 -64.5 -17.5t-21.5 -43.5q0 -24 14.5 -41.5t50.5 -43.5l35 -25q113 -80 113 -158q0 -57 -58 -112l-5 -5q37 -40 37 -87q0 -49 -29 -81.5t-64.5 -43.5t-73.5 -11q-63 0 -117 23 z"/>
<glyph glyph-name="dieresis" unicode="¨" horiz-adv-x="271" d="M98 577h-89v92h89v-92zM262 577h-89v92h89v-92z"/>
<glyph glyph-name="copyright" unicode="©" horiz-adv-x="780" d="M710 351q0 137 -92.5 230.5t-227.5 93.5q-134 0 -227.5 -94t-93.5 -229q0 -133 93.5 -227t226.5 -94t227 93.5t94 226.5zM746 356q0 -152 -103 -255.5t-254 -103.5q-149 0 -252 104t-103 254q0 148 103.5 251t252.5 103t252.5 -102.5t103.5 -250.5zM568 422h-78 q-1 98 -92 98q-56 0 -83 -39.5t-27 -121.5q0 -95 24.5 -135.5t82.5 -40.5q94 0 101 98h77q-6 -149 -185 -149q-94 0 -137 50.5t-43 160.5q0 120 47.5 176t150.5 56q162 0 162 -144v-9z"/>
<glyph glyph-name="ordfeminine" unicode="ª" horiz-adv-x="354" d="M238 475v59q-52 -5 -78.5 -11t-43.5 -21t-17 -42q0 -28 16.5 -44t42.5 -16q42 0 61 23.5t19 51.5zM315 363h-47q-16 0 -23 6.5t-7 23.5v4q-49 -41 -108 -41q-30 0 -51 11t-30 29t-12.5 32.5t-3.5 28.5q0 35 19 59q19 25 49.5 35t81.5 15l55 6v34q0 12 -1.5 20t-6.5 19.5 t-19 17.5t-36 6q-71 0 -71 -77h-60v10q0 59 40.5 84.5t95.5 25.5q71 0 95.5 -28t24.5 -77v-191q0 -36 15 -40v-13z"/>
<glyph glyph-name="guillemotleft" unicode="«" horiz-adv-x="375" d="M204 61h-77l-114 195l114 196h77l-113 -196zM370 61h-77l-113 195l113 196h77l-112 -196z"/>
<glyph glyph-name="logicalnot" unicode="¬" horiz-adv-x="724" d="M636 6h-89v255h-477v78h566v-333z"/>
<glyph glyph-name="uni00AD" unicode="­" horiz-adv-x="396" d="M346 224h-296v67h296v-67z"/>
<glyph glyph-name="registered" unicode="®" horiz-adv-x="780" d="M321 517v-147h45q60 0 85 15t25 61q0 38 -20.5 54.5t-71.5 16.5h-63zM249 565h171q65 0 97 -26t32 -83q0 -86 -81 -110q27 -8 42 -24.5t24 -50.5l21 -81q9 -30 24 -50h-77q-11 10 -17 32l-19 74q-12 49 -32 62.5t-81 13.5h-32v-182h-72v425zM710 351q0 137 -92.5 230.5 t-227.5 93.5q-134 0 -227.5 -94t-93.5 -229q0 -133 93.5 -227t226.5 -94t227 93.5t94 226.5zM746 356q0 -152 -103 -255.5t-254 -103.5q-149 0 -252 104t-103 254q0 148 103.5 251t252.5 103t252.5 -102.5t103.5 -250.5z"/>
<glyph glyph-name="macron" unicode="¯" horiz-adv-x="271" d="M268 575h-265v64h265v-64z"/>
<glyph glyph-name="degree" unicode="°" horiz-adv-x="354" d="M263 601q0 37 -25 62t-62 25q-35 0 -60.5 -25.5t-25.5 -62.5q0 -35 25.5 -60.5t61.5 -25.5t61 25.5t25 61.5zM324 601q0 -59 -43.5 -103t-103.5 -44q-61 0 -104 43t-43 104t43 104t104 43t104 -43t43 -104z"/>
<glyph glyph-name="plusminus" unicode="±" horiz-adv-x="724" d="M630 0h-536v79h536v-79zM631 355h-225v-219h-88v219h-224v76h224v218h88v-218h225v-76z"/>
<glyph glyph-name="twosuperior" unicode="²" horiz-adv-x="333" d="M306 441h-278v53q32 35 74.5 79.5t65 69.5t36.5 44q37 50 37 92q0 24 -15 44t-53 20q-74 0 -78 -84v-12h-64v14q0 53 34.5 90t113.5 37q55 0 92.5 -26.5t37.5 -82.5q0 -53 -27.5 -92.5t-108.5 -122.5l-67 -68h200v-55z"/>
<glyph glyph-name="threesuperior" unicode="³" horiz-adv-x="333" d="M106 646v48h36q40 0 63.5 17t23.5 62q0 72 -69 72q-71 0 -71 -79v-14h-65v6q0 130 146 130q67 0 96.5 -31t29.5 -76q0 -80 -72 -108q84 -21 84 -107q0 -36 -15 -63t-33.5 -39.5t-44 -19.5t-38 -8t-24.5 -1q-138 0 -138 129h68v-12q2 -72 76 -72q82 0 82 87q0 79 -89 79 h-46z"/>
<glyph glyph-name="acute" unicode="´" horiz-adv-x="271" d="M245 695l-144 -136h-75l113 136h106z"/>
<glyph glyph-name="mu" unicode="µ" horiz-adv-x="542" d="M72 500h85v-318q0 -137 101 -137q49 0 87.5 30.5t38.5 74.5v350h86v-500h-85v58q-68 -64 -136 -64q-59 0 -92 48v-248h-85v706z"/>
<glyph glyph-name="paragraph" unicode="¶" horiz-adv-x="642" d="M525 653h-34v-820h-56v820h-146v-820h-57v491q-72 11 -114 59.5t-42 125.5q0 88 55 141q31 31 69 43.5t100 12.5h225v-53z"/>
<glyph glyph-name="periodcentered" unicode="·" horiz-adv-x="208" d="M155 215h-101v97h101v-97z"/>
<glyph glyph-name="cedilla" unicode="¸" horiz-adv-x="271" d="M115 29l-5 -73q6 1 19 1q9 0 22 -3.5t30 -12.5t28 -29t11 -48q0 -30 -15 -52q-28 -45 -114 -45q-15 0 -41 2v51q12 -2 34 -2q71 0 71 44q0 27 -17 37.5t-65 10.5q-9 0 -13 -1l9 120h46z"/>
<glyph glyph-name="onesuperior" unicode="¹" horiz-adv-x="333" d="M216 441h-65v366h-84v44q78 12 149 40v-450z"/>
<glyph glyph-name="ordmasculine" unicode="º" horiz-adv-x="354" d="M93 533q0 -28 3 -48.5t11 -42t26.5 -33t45.5 -11.5q82 0 82 140q0 132 -81 132q-87 0 -87 -137zM27 535q0 177 154 177q84 0 115 -48.5t31 -131.5q0 -176 -150 -176q-84 0 -117 47t-33 132z"/>
<glyph glyph-name="guillemotright" unicode="»" horiz-adv-x="375" d="M195 256l-113 -195h-78l113 195l-112 196h77zM361 256l-113 -195h-77l112 195l-112 196h77z"/>
<glyph glyph-name="onequarter" unicode="¼" horiz-adv-x="792" d="M750 99h-47v-99h-63v99h-186v33q62 134 133 310h67q-59 -139 -129 -290h115v188h63v-188h47v-53zM242 0h-56l301 648h53zM204 206h-65v366h-84v44q78 12 149 40v-450z"/>
<glyph glyph-name="onehalf" unicode="½" horiz-adv-x="792" d="M743 0h-278v53q32 35 74.5 79.5t65 69.5t36.5 44q37 50 37 92q0 24 -15 44t-53 20q-74 0 -78 -84v-12h-64v14q0 53 34.5 90t113.5 37q55 0 92.5 -26.5t37.5 -82.5q0 -53 -27.5 -92.5t-108.5 -122.5l-67 -68h200v-55zM231 0h-55l301 648h52zM195 206h-65v366h-84v44 q78 12 149 40v-450z"/>
<glyph glyph-name="threequarters" unicode="¾" horiz-adv-x="792" d="M113 411v48h36q40 0 63.5 17t23.5 62q0 72 -69 72q-71 0 -71 -79v-14h-65v6q0 130 146 130q67 0 96.5 -31t29.5 -76q0 -80 -72 -108q84 -21 84 -107q0 -36 -15 -63t-33.5 -39.5t-44 -19.5t-38 -8t-24.5 -1q-138 0 -138 129h68v-12q2 -72 76 -72q82 0 82 87q0 79 -89 79 h-46zM779 99h-48v-99h-62v99h-186v33q66 143 132 310h68q-58 -137 -130 -290h116v188h62v-188h48v-53zM299 0h-55l300 648h53z"/>
<glyph glyph-name="questiondown" unicode="¿" horiz-adv-x="479" d="M242 648h97v-97h-97v97zM256 476h76v-124q-95 -7 -146 -47q-54 -45 -54 -127q0 -59 30 -96t88 -37q52 0 79 32q24 28 24 90v39h86v-38q0 -26 -3.5 -47t-15.5 -47t-33 -43.5t-59.5 -29.5t-90.5 -12q-90 0 -143.5 47t-53.5 136q0 56 23 100.5t58.5 70t69.5 39.5t65 18v76z "/>
<glyph glyph-name="Agrave" unicode="À" horiz-adv-x="646" d="M392 759h-73l-104 136h99zM427 341l-96 286l-109 -286h205zM645 0h-101l-94 276h-253l-107 -276h-89l283 706h114z"/>
<glyph glyph-name="Aacute" unicode="Á" horiz-adv-x="646" d="M502 895l-144 -136h-74l113 136h105zM427 341l-96 286l-109 -286h205zM645 0h-101l-94 276h-253l-107 -276h-89l283 706h114z"/>
<glyph glyph-name="Acircumflex" unicode="Â" horiz-adv-x="646" d="M443 759h-66l-54 97l-51 -97h-64l73 136h86zM427 341l-96 286l-109 -286h205zM645 0h-101l-94 276h-253l-107 -276h-89l283 706h114z"/>
<glyph glyph-name="Atilde" unicode="Ã" horiz-adv-x="646" d="M481 890v-50q0 -81 -62 -81q-31 0 -84 40l-25 19q-26 20 -33 20q-6 0 -9.5 -3t-4.5 -10t-1.5 -12.5t-0.5 -16.5v-32h-60v51q0 15 1.5 25.5t6 25t17.5 22t33 7.5q34 0 76 -33l31 -24q26 -21 37 -21q16 0 16 35v38h62zM427 341l-96 286l-109 -286h205zM645 0h-101l-94 276 h-253l-107 -276h-89l283 706h114z"/>
<glyph glyph-name="Adieresis" unicode="Ä" horiz-adv-x="646" d="M303 777h-89v92h89v-92zM467 777h-88v92h88v-92zM427 341l-96 286l-109 -286h205zM645 0h-101l-94 276h-253l-107 -276h-89l283 706h114z"/>
<glyph glyph-name="Aring" unicode="Å" horiz-adv-x="646" d="M384 841q0 19 -12.5 31t-30.5 12t-31.5 -12.5t-13.5 -30.5q0 -19 12 -31.5t32 -12.5q19 0 31.5 12t12.5 32zM431 842q0 -41 -27 -66t-65 -25t-64 26.5t-26 63.5q0 39 27.5 64.5t65.5 25.5q36 0 62.5 -25.5t26.5 -63.5zM427 341l-96 286l-109 -286h205zM645 0h-101 l-94 276h-253l-107 -276h-89l283 706h114z"/>
<glyph glyph-name="AE" unicode="Æ" horiz-adv-x="917" d="M474 401v238h-60l-117 -238h177zM890 0h-416v334h-212l-168 -334h-94l356 706h509v-67h-296v-238h270v-67h-270v-266h321v-68z"/>
<glyph glyph-name="Ccedilla" unicode="Ç" horiz-adv-x="625" d="M595 487h-94v8q0 72 -40.5 118t-122.5 46q-60 0 -99.5 -28t-58 -80.5t-24.5 -104t-6 -123.5q0 -32 2 -57.5t7 -60.5t17.5 -60.5t31.5 -49t50 -36t72 -12.5q86 0 129 50t47 121h96q-10 -105 -77 -167.5t-203 -62.5h-4l-2 -30q6 1 20 1q16 0 34.5 -6t37.5 -29t19 -59 q0 -29 -15 -52q-28 -45 -114 -45q-16 0 -42 2v51q12 -2 35 -2q71 0 71 44q0 27 -17 37.5t-65 10.5q-9 0 -13 -1l6 81q-54 6 -94 27t-64.5 51t-39.5 73.5t-20.5 88.5t-5.5 102q0 91 14 158.5t46 120.5t90 80.5t142 27.5q130 0 192 -60t62 -159v-14z"/>
<glyph glyph-name="Egrave" unicode="È" horiz-adv-x="521" d="M316 759h-73l-104 136h99zM494 0h-417v706h390v-67h-293v-238h269v-67h-269v-266h320v-68z"/>
<glyph glyph-name="Eacute" unicode="É" horiz-adv-x="521" d="M418 895l-144 -136h-74l113 136h105zM494 0h-417v706h390v-67h-293v-238h269v-67h-269v-266h320v-68z"/>
<glyph glyph-name="Ecircumflex" unicode="Ê" horiz-adv-x="521" d="M380 759h-66l-54 97l-51 -97h-64l73 136h86zM494 0h-417v706h390v-67h-293v-238h269v-67h-269v-266h320v-68z"/>
<glyph glyph-name="Edieresis" unicode="Ë" horiz-adv-x="521" d="M222 777h-89v92h89v-92zM386 777h-88v92h88v-92zM494 0h-417v706h390v-67h-293v-238h269v-67h-269v-266h320v-68z"/>
<glyph glyph-name="Igrave" unicode="Ì" horiz-adv-x="250" d="M181 759h-73l-104 136h99zM173 0h-96v706h96v-706z"/>
<glyph glyph-name="Iacute" unicode="Í" horiz-adv-x="250" d="M283 895l-144 -136h-74l113 136h105zM173 0h-96v706h96v-706z"/>
<glyph glyph-name="Icircumflex" unicode="Î" horiz-adv-x="250" d="M245 759h-66l-54 97l-51 -97h-64l73 136h86zM173 0h-96v706h96v-706z"/>
<glyph glyph-name="Idieresis" unicode="Ï" horiz-adv-x="250" d="M87 777h-89v92h89v-92zM251 777h-88v92h88v-92zM173 0h-96v706h96v-706z"/>
<glyph glyph-name="Eth" unicode="Ð" horiz-adv-x="688" d="M172 68h118q63 0 107.5 12.5t69 37t36 46.5t20.5 54q17 60 17 142q0 151 -56 217q-52 62 -162 62h-150v-226h181v-65h-181v-280zM77 0v348h-77v65h77v293h246q80 0 120 -10q192 -49 192 -331q0 -222 -104 -304q-77 -61 -235 -61h-219z"/>
<glyph glyph-name="Ntilde" unicode="Ñ" horiz-adv-x="708" d="M495 890v-50q0 -81 -62 -81q-31 0 -84 40l-25 19q-26 20 -33 20q-6 0 -9.5 -3t-4.5 -10t-1.5 -12.5t-0.5 -16.5v-32h-60v51q0 15 1.5 25.5t6 25t17.5 22t33 7.5q34 0 76 -33l31 -24q26 -21 37 -21q16 0 16 35v38h62zM632 0h-105l-369 585l3 -585h-84v706h109l367 -588 l-4 588h83v-706z"/>
<glyph glyph-name="Ograve" unicode="Ò" horiz-adv-x="688" d="M403 759h-73l-104 136h99zM150 323q0 -59 7 -103t26 -86t58.5 -64.5t98.5 -22.5q114 0 155.5 79.5t41.5 250.5q0 52 -4 90t-15.5 76t-31.5 62t-54.5 39t-81.5 15q-53 0 -90.5 -18t-58.5 -45.5t-33 -74.5t-15 -90.5t-3 -107.5zM49 318q0 49 2.5 87.5t10 82t20.5 75.5 t36 63t54 50.5t76 31.5t102 12q152 0 220 -82.5t68 -260.5q0 -70 -6.5 -123t-25 -105.5t-50.5 -86t-85.5 -54.5t-126.5 -21q-149 0 -222 78t-73 253z"/>
<glyph glyph-name="Oacute" unicode="Ó" horiz-adv-x="688" d="M505 895l-144 -136h-74l113 136h105zM150 323q0 -59 7 -103t26 -86t58.5 -64.5t98.5 -22.5q114 0 155.5 79.5t41.5 250.5q0 52 -4 90t-15.5 76t-31.5 62t-54.5 39t-81.5 15q-53 0 -90.5 -18t-58.5 -45.5t-33 -74.5t-15 -90.5t-3 -107.5zM49 318q0 49 2.5 87.5t10 82 t20.5 75.5t36 63t54 50.5t76 31.5t102 12q152 0 220 -82.5t68 -260.5q0 -70 -6.5 -123t-25 -105.5t-50.5 -86t-85.5 -54.5t-126.5 -21q-149 0 -222 78t-73 253z"/>
<glyph glyph-name="Ocircumflex" unicode="Ô" horiz-adv-x="688" d="M464 759h-66l-54 97l-51 -97h-64l73 136h86zM150 323q0 -59 7 -103t26 -86t58.5 -64.5t98.5 -22.5q114 0 155.5 79.5t41.5 250.5q0 52 -4 90t-15.5 76t-31.5 62t-54.5 39t-81.5 15q-53 0 -90.5 -18t-58.5 -45.5t-33 -74.5t-15 -90.5t-3 -107.5zM49 318q0 49 2.5 87.5 t10 82t20.5 75.5t36 63t54 50.5t76 31.5t102 12q152 0 220 -82.5t68 -260.5q0 -70 -6.5 -123t-25 -105.5t-50.5 -86t-85.5 -54.5t-126.5 -21q-149 0 -222 78t-73 253z"/>
<glyph glyph-name="Otilde" unicode="Õ" horiz-adv-x="688" d="M485 890v-50q0 -81 -62 -81q-31 0 -84 40l-25 19q-26 20 -33 20q-6 0 -9.5 -3t-4.5 -10t-1.5 -12.5t-0.5 -16.5v-32h-60v51q0 15 1.5 25.5t6 25t17.5 22t33 7.5q34 0 76 -33l31 -24q26 -21 37 -21q16 0 16 35v38h62zM150 323q0 -59 7 -103t26 -86t58.5 -64.5t98.5 -22.5 q114 0 155.5 79.5t41.5 250.5q0 52 -4 90t-15.5 76t-31.5 62t-54.5 39t-81.5 15q-53 0 -90.5 -18t-58.5 -45.5t-33 -74.5t-15 -90.5t-3 -107.5zM49 318q0 49 2.5 87.5t10 82t20.5 75.5t36 63t54 50.5t76 31.5t102 12q152 0 220 -82.5t68 -260.5q0 -70 -6.5 -123t-25 -105.5 t-50.5 -86t-85.5 -54.5t-126.5 -21q-149 0 -222 78t-73 253z"/>
<glyph glyph-name="Odieresis" unicode="Ö" horiz-adv-x="688" d="M306 777h-89v92h89v-92zM470 777h-88v92h88v-92zM150 323q0 -59 7 -103t26 -86t58.5 -64.5t98.5 -22.5q114 0 155.5 79.5t41.5 250.5q0 52 -4 90t-15.5 76t-31.5 62t-54.5 39t-81.5 15q-53 0 -90.5 -18t-58.5 -45.5t-33 -74.5t-15 -90.5t-3 -107.5zM49 318q0 49 2.5 87.5 t10 82t20.5 75.5t36 63t54 50.5t76 31.5t102 12q152 0 220 -82.5t68 -260.5q0 -70 -6.5 -123t-25 -105.5t-50.5 -86t-85.5 -54.5t-126.5 -21q-149 0 -222 78t-73 253z"/>
<glyph glyph-name="multiply" unicode="×" horiz-adv-x="724" d="M582 142l-60 -62l-163 161l-159 -160l-56 55l158 160l-162 160l60 62l162 -160l159 160l56 -54l-158 -161z"/>
<glyph glyph-name="Oslash" unicode="Ø" horiz-adv-x="688" d="M175 149l305 466q-50 45 -130 45q-39 0 -70 -11t-48.5 -24.5t-32 -36t-18.5 -32.5t-10 -28q-26 -78 -26 -194t30 -185zM512 573l-308 -473q29 -29 58 -41.5t73 -12.5q140 0 179 125q29 88 29 218q0 109 -31 184zM576 763l43 -27l-57 -88q78 -77 78 -271q0 -67 -6.5 -120 t-26 -105.5t-52 -87t-87 -56t-128.5 -21.5q-112 0 -180 47l-51 -79l-44 27l55 85q-72 95 -72 278q0 184 69 278q73 97 229 97q101 0 175 -41z"/>
<glyph glyph-name="Ugrave" unicode="Ù" horiz-adv-x="667" d="M398 759h-73l-104 136h99zM596 706v-456q0 -37 -2.5 -62.5t-18.5 -65t-46 -69.5q-26 -26 -78 -45.5t-122 -19.5q-126 0 -191 56q-42 36 -54.5 88t-12.5 122v452h96v-464q0 -193 172 -193q54 0 90.5 18.5t53.5 52t23 67t6 77.5v442h84z"/>
<glyph glyph-name="Uacute" unicode="Ú" horiz-adv-x="667" d="M505 895l-144 -136h-74l113 136h105zM596 706v-456q0 -37 -2.5 -62.5t-18.5 -65t-46 -69.5q-26 -26 -78 -45.5t-122 -19.5q-126 0 -191 56q-42 36 -54.5 88t-12.5 122v452h96v-464q0 -193 172 -193q54 0 90.5 18.5t53.5 52t23 67t6 77.5v442h84z"/>
<glyph glyph-name="Ucircumflex" unicode="Û" horiz-adv-x="667" d="M453 759h-66l-54 97l-51 -97h-64l73 136h86zM596 706v-456q0 -37 -2.5 -62.5t-18.5 -65t-46 -69.5q-26 -26 -78 -45.5t-122 -19.5q-126 0 -191 56q-42 36 -54.5 88t-12.5 122v452h96v-464q0 -193 172 -193q54 0 90.5 18.5t53.5 52t23 67t6 77.5v442h84z"/>
<glyph glyph-name="Udieresis" unicode="Ü" horiz-adv-x="667" d="M300 777h-89v92h89v-92zM464 777h-88v92h88v-92zM596 706v-456q0 -37 -2.5 -62.5t-18.5 -65t-46 -69.5q-26 -26 -78 -45.5t-122 -19.5q-126 0 -191 56q-42 36 -54.5 88t-12.5 122v452h96v-464q0 -193 172 -193q54 0 90.5 18.5t53.5 52t23 67t6 77.5v442h84z"/>
<glyph glyph-name="Yacute" unicode="Ý" horiz-adv-x="604" d="M481 895l-144 -136h-74l113 136h105zM604 706l-248 -448v-258h-92v258l-264 448h113l203 -363l192 363h96z"/>
<glyph glyph-name="Thorn" unicode="Þ" horiz-adv-x="542" d="M174 515v-302h103q24 0 41 1.5t39.5 10.5t37 24t24.5 45t10 72q0 41 -10 70t-23.5 44t-35.5 23.5t-38 10t-40 1.5h-108zM77 706h97v-123h148q204 0 204 -216q0 -222 -233 -222h-119v-145h-97v706z"/>
<glyph glyph-name="germandbls" unicode="ß" horiz-adv-x="583" d="M157 0h-86v481q0 109 44 163q55 68 175 68q58 0 98.5 -16t59.5 -44.5t26.5 -56t7.5 -59.5q0 -42 -12 -78q-2 0 -12.5 0.5t-19.5 0.5q-38 0 -69 -18.5t-31 -54.5q0 -31 17.5 -48t64.5 -40l27 -13q57 -28 81.5 -60.5t24.5 -86.5q0 -41 -15.5 -71t-35.5 -44t-47.5 -22.5 t-42 -9.5t-29.5 -1q-93 0 -129 39t-36 90v7h82q0 -39 25.5 -61.5t61.5 -22.5t60 23t24 60q0 34 -20.5 53.5t-55.5 36.5l-27 13q-66 32 -88 63t-22 77q0 68 45 100.5t96 35.5q2 8 2 33q0 48 -26.5 85.5t-91.5 37.5q-45 0 -76 -23q-23 -17 -34.5 -45t-13.5 -49t-2 -56v-487z "/>
<glyph glyph-name="agrave" unicode="à" d="M305 559h-73l-104 136h99zM344 180v75q-133 -15 -169 -37q-45 -26 -45 -81q0 -42 24 -66t67 -24q45 0 77 21q46 30 46 112zM451 0h-66q-24 0 -32.5 9t-8.5 32v14q-57 -65 -148 -65q-73 0 -115 37t-42 108q0 81 63 117q59 33 242 50v53q0 51 -22.5 75.5t-72.5 24.5 q-111 0 -111 -107v-7h-81v15q0 82 57 118.5t141 36.5q110 0 150 -57q23 -33 23 -108v-273q0 -57 23 -61v-12z"/>
<glyph glyph-name="aacute" unicode="á" d="M422 695l-144 -136h-75l113 136h106zM344 180v75q-133 -15 -169 -37q-45 -26 -45 -81q0 -42 24 -66t67 -24q45 0 77 21q46 30 46 112zM451 0h-66q-24 0 -32.5 9t-8.5 32v14q-57 -65 -148 -65q-73 0 -115 37t-42 108q0 81 63 117q59 33 242 50v53q0 51 -22.5 75.5 t-72.5 24.5q-111 0 -111 -107v-7h-81v15q0 82 57 118.5t141 36.5q110 0 150 -57q23 -33 23 -108v-273q0 -57 23 -61v-12z"/>
<glyph glyph-name="acircumflex" unicode="â" d="M370 559h-66l-54 97l-51 -97h-64l73 136h86zM344 180v75q-133 -15 -169 -37q-45 -26 -45 -81q0 -42 24 -66t67 -24q45 0 77 21q46 30 46 112zM451 0h-66q-24 0 -32.5 9t-8.5 32v14q-57 -65 -148 -65q-73 0 -115 37t-42 108q0 81 63 117q59 33 242 50v53q0 51 -22.5 75.5 t-72.5 24.5q-111 0 -111 -107v-7h-81v15q0 82 57 118.5t141 36.5q110 0 150 -57q23 -33 23 -108v-273q0 -57 23 -61v-12z"/>
<glyph glyph-name="atilde" unicode="ã" d="M392 690v-50q0 -81 -62 -81q-31 0 -84 40l-25 19q-26 20 -33 20q-6 0 -9.5 -3t-4.5 -10t-1.5 -12.5t-0.5 -16.5v-32h-60v51q0 15 1.5 25.5t6 25t17.5 22t33 7.5q34 0 76 -33l31 -24q26 -21 37 -21q16 0 16 35v38h62zM344 180v75q-133 -15 -169 -37q-45 -26 -45 -81 q0 -42 24 -66t67 -24q45 0 77 21q46 30 46 112zM451 0h-66q-24 0 -32.5 9t-8.5 32v14q-57 -65 -148 -65q-73 0 -115 37t-42 108q0 81 63 117q59 33 242 50v53q0 51 -22.5 75.5t-72.5 24.5q-111 0 -111 -107v-7h-81v15q0 82 57 118.5t141 36.5q110 0 150 -57q23 -33 23 -108 v-273q0 -57 23 -61v-12z"/>
<glyph glyph-name="adieresis" unicode="ä" d="M212 577h-89v92h89v-92zM376 577h-89v92h89v-92zM344 180v75q-133 -15 -169 -37q-45 -26 -45 -81q0 -42 24 -66t67 -24q45 0 77 21q46 30 46 112zM451 0h-66q-24 0 -32.5 9t-8.5 32v14q-57 -65 -148 -65q-73 0 -115 37t-42 108q0 81 63 117q59 33 242 50v53 q0 51 -22.5 75.5t-72.5 24.5q-111 0 -111 -107v-7h-81v15q0 82 57 118.5t141 36.5q110 0 150 -57q23 -33 23 -108v-273q0 -57 23 -61v-12z"/>
<glyph glyph-name="aring" unicode="å" d="M294 640q0 19 -12.5 31t-30.5 12t-31.5 -12.5t-13.5 -30.5q0 -19 12 -31.5t32 -12.5q19 0 31.5 12t12.5 32zM341 641q0 -41 -27 -66t-65 -25t-64 26.5t-26 63.5q0 39 27.5 64.5t65.5 25.5q36 0 62.5 -25t26.5 -64zM344 180v75q-133 -15 -169 -37q-45 -26 -45 -81 q0 -42 24 -66t67 -24q45 0 77 21q46 30 46 112zM451 0h-66q-24 0 -32.5 9t-8.5 32v14q-57 -65 -148 -65q-73 0 -115 37t-42 108q0 81 63 117q59 33 242 50v53q0 51 -22.5 75.5t-72.5 24.5q-111 0 -111 -107v-7h-81v15q0 82 57 118.5t141 36.5q110 0 150 -57q23 -33 23 -108 v-273q0 -57 23 -61v-12z"/>
<glyph glyph-name="ae" unicode="æ" horiz-adv-x="792" d="M347 160v94q-9 -1 -36.5 -1.5t-49 -1.5t-50 -7.5t-47 -17t-32 -32t-13.5 -51.5q0 -44 28 -70t72 -26q62 0 95 33.5t33 79.5zM431 306h239q0 86 -43 124q-29 25 -70 25q-16 0 -31.5 -4.5t-37.5 -18t-37.5 -46t-19.5 -80.5zM756 252h-327v-20q0 -105 32 -145.5t91 -40.5 q16 0 31.5 3.5t36 13.5t34 33t15.5 57h84q0 -22 -8 -46t-28.5 -52t-65.5 -46.5t-108 -18.5q-124 0 -179 85q-57 -85 -174 -85q-48 0 -82 15t-50 39t-22.5 46.5t-6.5 46.5q0 169 267 169h51v53q0 51 -24 73.5t-75 22.5q-120 0 -120 -110v-5h-81v15q0 17 2.5 32.5t14.5 39.5 t32.5 41t61.5 30t97 13q115 0 150 -61q54 61 154 61q116 0 165 -85q32 -53 32 -149v-25z"/>
<glyph glyph-name="ccedilla" unicode="ç" horiz-adv-x="495" d="M458 331h-84q0 18 -4 36t-14.5 39.5t-35 35t-59.5 13.5q-40 0 -67.5 -20.5t-40 -54.5t-17.5 -66t-5 -68q0 -23 1.5 -43.5t9 -51t20 -52t37 -37.5t58.5 -16q103 0 115 122h86q0 -11 -2 -26t-13.5 -44t-31 -51.5t-60 -39.5t-94.5 -17q-11 0 -17 1l-2 -35q12 2 21 2t22 -3.5 t29 -12.5t27 -29.5t11 -48.5q0 -30 -15 -52q-27 -44 -114 -44q-15 0 -41 2v51q12 -2 34 -2q36 0 53.5 9.5t17.5 33.5q0 27 -17 37.5t-65 10.5q-9 0 -13 -1l10 87q-157 33 -157 251q0 52 10 95.5t33.5 83t69.5 62.5t110 23q87 0 140.5 -42.5t53.5 -137.5z"/>
<glyph glyph-name="egrave" unicode="è" d="M305 559h-73l-104 136h99zM134 304h245q-5 151 -114 151q-56 0 -91.5 -39t-39.5 -112zM131 252v-5q0 -27 1 -46t8 -51t20 -52t39 -36t63 -16q15 0 31 4t35.5 14t33 33t15.5 56h85q0 -68 -54 -115.5t-150 -47.5q-113 0 -165.5 66t-52.5 180q0 128 54.5 201.5t169.5 73.5 q200 0 200 -234v-25h-333z"/>
<glyph glyph-name="eacute" unicode="é" d="M435 695l-144 -136h-75l113 136h106zM134 304h245q-5 151 -114 151q-56 0 -91.5 -39t-39.5 -112zM131 252v-5q0 -27 1 -46t8 -51t20 -52t39 -36t63 -16q15 0 31 4t35.5 14t33 33t15.5 56h85q0 -68 -54 -115.5t-150 -47.5q-113 0 -165.5 66t-52.5 180q0 128 54.5 201.5 t169.5 73.5q200 0 200 -234v-25h-333z"/>
<glyph glyph-name="ecircumflex" unicode="ê" d="M391 559h-66l-54 97l-51 -97h-64l73 136h86zM134 304h245q-5 151 -114 151q-56 0 -91.5 -39t-39.5 -112zM131 252v-5q0 -27 1 -46t8 -51t20 -52t39 -36t63 -16q15 0 31 4t35.5 14t33 33t15.5 56h85q0 -68 -54 -115.5t-150 -47.5q-113 0 -165.5 66t-52.5 180 q0 128 54.5 201.5t169.5 73.5q200 0 200 -234v-25h-333z"/>
<glyph glyph-name="edieresis" unicode="ë" d="M232 577h-89v92h89v-92zM396 577h-89v92h89v-92zM134 304h245q-5 151 -114 151q-56 0 -91.5 -39t-39.5 -112zM131 252v-5q0 -27 1 -46t8 -51t20 -52t39 -36t63 -16q15 0 31 4t35.5 14t33 33t15.5 56h85q0 -68 -54 -115.5t-150 -47.5q-113 0 -165.5 66t-52.5 180 q0 128 54.5 201.5t169.5 73.5q200 0 200 -234v-25h-333z"/>
<glyph glyph-name="igrave" unicode="ì" horiz-adv-x="229" d="M170 559h-73l-104 136h99zM157 0h-85v500h85v-500z"/>
<glyph glyph-name="iacute" unicode="í" horiz-adv-x="229" d="M273 695l-144 -136h-75l113 136h106zM157 0h-85v500h85v-500z"/>
<glyph glyph-name="icircumflex" unicode="î" horiz-adv-x="229" d="M235 559h-66l-54 97l-51 -97h-64l73 136h86zM157 0h-85v500h85v-500z"/>
<glyph glyph-name="idieresis" unicode="ï" horiz-adv-x="229" d="M77 577h-89v92h89v-92zM241 577h-89v92h89v-92zM157 0h-85v500h85v-500z"/>
<glyph glyph-name="eth" unicode="ð" horiz-adv-x="521" d="M131 248q0 -28 1.5 -49t8.5 -52.5t20.5 -52t39.5 -35.5t62 -15t61.5 17t37.5 38.5t19 55.5t8 54t1 48q0 199 -121 199q-138 0 -138 -208zM299 583h-137l-19 46h132q-28 43 -57 77h88q29 -33 57 -77h79l19 -46h-73q34 -55 63.5 -147t29.5 -188q0 -258 -226 -258 q-113 0 -163.5 65.5t-50.5 194.5q0 261 230 261q29 0 68 -11q-19 55 -40 83z"/>
<glyph glyph-name="ntilde" unicode="ñ" horiz-adv-x="542" d="M411 690v-50q0 -81 -62 -81q-31 0 -84 40l-25 19q-26 20 -33 20q-6 0 -9.5 -3t-4.5 -10t-1.5 -12.5t-0.5 -16.5v-32h-60v51q0 15 1.5 25.5t6 25t17.5 22t33 7.5q34 0 76 -33l31 -24q26 -21 37 -21q16 0 16 35v38h62zM469 0h-85v312q0 86 -29 116q-26 27 -72 27 q-54 0 -90 -30.5t-36 -83.5v-341h-85v500h85v-56q73 67 164 67q47 0 83 -20q41 -23 53 -59.5t12 -92.5v-339z"/>
<glyph glyph-name="ograve" unicode="ò" horiz-adv-x="521" d="M295 559h-73l-104 136h99zM131 247q0 -28 1.5 -50t9 -52.5t21 -50.5t39 -35t61.5 -15q127 0 127 211q0 201 -125 201q-134 0 -134 -209zM41 245q0 266 224 266q115 0 165 -63.5t50 -183.5q0 -48 -5 -86t-20 -74t-39 -60.5t-64 -39t-94 -14.5q-217 0 -217 255z"/>
<glyph glyph-name="oacute" unicode="ó" horiz-adv-x="521" d="M440 695l-144 -136h-75l113 136h106zM131 247q0 -28 1.5 -50t9 -52.5t21 -50.5t39 -35t61.5 -15q127 0 127 211q0 201 -125 201q-134 0 -134 -209zM41 245q0 266 224 266q115 0 165 -63.5t50 -183.5q0 -48 -5 -86t-20 -74t-39 -60.5t-64 -39t-94 -14.5q-217 0 -217 255z "/>
<glyph glyph-name="ocircumflex" unicode="ô" horiz-adv-x="521" d="M380 559h-66l-54 97l-51 -97h-64l73 136h86zM131 247q0 -28 1.5 -50t9 -52.5t21 -50.5t39 -35t61.5 -15q127 0 127 211q0 201 -125 201q-134 0 -134 -209zM41 245q0 266 224 266q115 0 165 -63.5t50 -183.5q0 -48 -5 -86t-20 -74t-39 -60.5t-64 -39t-94 -14.5 q-217 0 -217 255z"/>
<glyph glyph-name="otilde" unicode="õ" horiz-adv-x="521" d="M401 690v-50q0 -81 -62 -81q-31 0 -84 40l-25 19q-26 20 -33 20q-6 0 -9.5 -3t-4.5 -10t-1.5 -12.5t-0.5 -16.5v-32h-60v51q0 15 1.5 25.5t6 25t17.5 22t33 7.5q34 0 76 -33l31 -24q26 -21 37 -21q16 0 16 35v38h62zM131 247q0 -28 1.5 -50t9 -52.5t21 -50.5t39 -35 t61.5 -15q127 0 127 211q0 201 -125 201q-134 0 -134 -209zM41 245q0 266 224 266q115 0 165 -63.5t50 -183.5q0 -48 -5 -86t-20 -74t-39 -60.5t-64 -39t-94 -14.5q-217 0 -217 255z"/>
<glyph glyph-name="odieresis" unicode="ö" horiz-adv-x="521" d="M222 577h-89v92h89v-92zM386 577h-89v92h89v-92zM131 247q0 -28 1.5 -50t9 -52.5t21 -50.5t39 -35t61.5 -15q127 0 127 211q0 201 -125 201q-134 0 -134 -209zM41 245q0 266 224 266q115 0 165 -63.5t50 -183.5q0 -48 -5 -86t-20 -74t-39 -60.5t-64 -39t-94 -14.5 q-217 0 -217 255z"/>
<glyph glyph-name="divide" unicode="÷" horiz-adv-x="724" d="M408 82h-91v111h91v-111zM645 260h-566v79h566v-79zM408 406h-91v112h91v-112z"/>
<glyph glyph-name="oslash" unicode="ø" horiz-adv-x="521" d="M140 127l215 299q-39 32 -88 32q-142 0 -142 -217q0 -84 15 -114zM380 384l-217 -302q32 -39 95 -39q69 0 103 52t34 170q0 70 -15 119zM69 -49l-37 26l57 80q-49 49 -49 175q0 279 227 279q64 0 126 -32l53 74l37 -26l-53 -74q51 -46 51 -170q0 -146 -52 -219.5 t-168 -73.5q-48 0 -75 8.5t-62 28.5z"/>
<glyph glyph-name="ugrave" unicode="ù" horiz-adv-x="542" d="M330 559h-73l-104 136h99zM469 0h-85v58q-74 -68 -165 -68q-58 0 -96 29q-34 26 -44.5 63t-10.5 90v328h85v-305q0 -32 3 -53.5t12.5 -46t31.5 -37t56 -12.5q26 0 54.5 10t44.5 26q29 30 29 80v338h85v-500z"/>
<glyph glyph-name="uacute" unicode="ú" horiz-adv-x="542" d="M439 695l-144 -136h-75l113 136h106zM469 0h-85v58q-74 -68 -165 -68q-58 0 -96 29q-34 26 -44.5 63t-10.5 90v328h85v-305q0 -32 3 -53.5t12.5 -46t31.5 -37t56 -12.5q26 0 54.5 10t44.5 26q29 30 29 80v338h85v-500z"/>
<glyph glyph-name="ucircumflex" unicode="û" horiz-adv-x="542" d="M391 559h-66l-54 97l-51 -97h-64l73 136h86zM469 0h-85v58q-74 -68 -165 -68q-58 0 -96 29q-34 26 -44.5 63t-10.5 90v328h85v-305q0 -32 3 -53.5t12.5 -46t31.5 -37t56 -12.5q26 0 54.5 10t44.5 26q29 30 29 80v338h85v-500z"/>
<glyph glyph-name="udieresis" unicode="ü" horiz-adv-x="542" d="M233 577h-89v92h89v-92zM397 577h-89v92h89v-92zM469 0h-85v58q-74 -68 -165 -68q-58 0 -96 29q-34 26 -44.5 63t-10.5 90v328h85v-305q0 -32 3 -53.5t12.5 -46t31.5 -37t56 -12.5q26 0 54.5 10t44.5 26q29 30 29 80v338h85v-500z"/>
<glyph glyph-name="yacute" unicode="ý" horiz-adv-x="437" d="M398 695l-144 -136h-75l113 136h106zM438 500l-203 -566q-12 -33 -22 -53.5t-28.5 -42.5t-46.5 -32.5t-66 -10.5q-33 0 -62 8v69q36 -9 57 -9q43 0 64.5 23t38.5 70l14 40l-184 504h96l133 -397l130 397h79z"/>
<glyph glyph-name="thorn" unicode="þ" horiz-adv-x="542" d="M152 303v-135q0 -63 35.5 -92.5t86.5 -29.5q134 0 134 203q0 205 -124 206q-43 0 -70 -17q-35 -20 -48.5 -49t-13.5 -86zM69 706h84v-267q32 35 66.5 53.5t89.5 18.5q51 0 88 -20t55.5 -47.5t29.5 -66t13.5 -64t2.5 -54.5q0 -171 -91 -236q-47 -33 -121 -33 q-89 0 -133 63v-259h-84v912z"/>
</font>
</defs>
</svg>
