<?xml version="1.0" encoding="utf-8"?>
<!-- Generator: Adobe Illustrator 23.0.0, SVG Export Plug-In . SVG Version: 6.00 Build 0)  -->
<svg version="1.1" id="Layer_1" xmlns="http://www.w3.org/2000/svg" xmlns:xlink="http://www.w3.org/1999/xlink" x="0px" y="0px"
	 viewBox="0 0 384 384" style="enable-background:new 0 0 384 384;" xml:space="preserve">
<style type="text/css">
	.st0{fill: #113F67;}
</style>
<g>
	<path class="st0" d="M181.4,324.8c0.06-0.95,0.13-1.43,0.13-1.92c0-69.48,0.04-138.95-0.11-208.43c-0.01-3.12-1.12-6.63-2.79-9.3
		c-9.72-15.56-23-27.42-39.1-36.11c-24.52-13.24-51.09-17.76-78.58-18c-8.26-0.07-13.58,5.97-13.59,14.67
		c-0.01,66.77-0.02,133.54,0,200.31c0,8.98,5.45,14.37,14.32,14.86c10.54,0.58,21.15,0.94,31.58,2.4
		c26.66,3.74,51.52,12.44,73.21,28.89C171.53,316.03,176.19,320.38,181.4,324.8z M202.42,325.16c1.04-0.82,1.45-1.08,1.79-1.42
		c14.38-14.46,31.44-24.68,50.53-31.57c21.6-7.8,43.98-11.13,66.89-11.33c9.47-0.08,14.97-5.6,14.97-14.91
		c0.02-66.77,0.02-133.54,0-200.32c0-9.13-5.7-14.71-14.8-14.6c-17.16,0.21-34.08,2.24-50.58,7.1
		c-26.62,7.86-48.98,21.86-64.87,45.19c-2.75,4.03-3.98,8.21-3.97,13.1c0.08,68.12,0.05,136.25,0.05,204.37
		C202.42,321.99,202.42,323.19,202.42,325.16z"/>
	<path d="M380.91,328.92c-4.52,9.84-8.93,12-19.57,9.71c-28.21-6.06-56.7-9.48-85.58-8.87c-17.35,0.37-34.56,2.21-51.51,6.07
		c-0.57,0.13-1.15,0.21-2.66,0.49c2.29-2.04,3.86-3.56,5.55-4.92c18.34-14.85,39.65-22.93,62.65-26.67
		c10.39-1.69,20.99-2.56,31.52-2.88c22.03-0.65,36.21-14.74,36.23-36.89c0.03-32.94,0.01-65.89,0.01-98.83c0-21.27,0-42.53,0-63.8
		c0-1.33,0-2.66,0-3.94c12.89-1.55,18.75-0.85,23.37,9.86C380.91,181.81,380.91,255.37,380.91,328.92z"/>
	<path d="M3.05,108.26c4.75-9.78,8.97-11.66,23.37-10.11c0,1.47,0,3.02,0,4.56c0,54.21,0.04,108.42-0.02,162.63
		c-0.02,15.25,6.38,26.7,20.24,33.08c4.83,2.22,10.64,3.01,16.04,3.2c20.38,0.74,40.37,3.35,59.61,10.42
		c12.66,4.66,24.39,10.99,34.82,19.6c1.58,1.31,3.07,2.73,4.45,3.96c-11.43-1.58-22.8-3.43-34.24-4.66
		c-22.23-2.39-44.46-1.55-66.57,1.37c-13.49,1.78-26.87,4.48-40.28,6.88c-8.43,1.51-13.25-1.25-17.42-10.27
		C3.05,255.37,3.05,181.81,3.05,108.26z"/>
	<path d="M181.4,324.8c-5.21-4.43-9.88-8.77-14.93-12.61c-21.69-16.45-46.55-25.15-73.21-28.89c-10.44-1.46-21.04-1.82-31.58-2.4
		c-8.87-0.49-14.32-5.88-14.32-14.86c-0.02-66.77-0.02-133.54,0-200.31c0-8.7,5.33-14.74,13.59-14.67
		c27.49,0.23,54.05,4.76,78.58,18c16.11,8.69,29.38,20.55,39.1,36.11c1.67,2.66,2.78,6.18,2.79,9.3
		c0.16,69.48,0.12,138.95,0.11,208.43C181.53,323.37,181.47,323.85,181.4,324.8z"/>
	<path d="M202.42,325.16c0-1.97,0-3.17,0-4.37c0-68.12,0.03-136.25-0.05-204.37c-0.01-4.88,1.23-9.07,3.97-13.1
		c15.89-23.33,38.25-37.33,64.87-45.19c16.49-4.87,33.42-6.89,50.58-7.1c9.1-0.11,14.8,5.48,14.8,14.6
		c0.02,66.77,0.02,133.54,0,200.32c0,9.3-5.5,14.83-14.97,14.91c-22.91,0.19-45.3,3.53-66.89,11.33
		c-19.08,6.89-36.14,17.11-50.53,31.57C203.88,324.08,203.47,324.34,202.42,325.16z"/>
</g>
</svg>
