<?xml version="1.0" encoding="utf-8"?>
<!-- Generator: Adobe Illustrator 23.0.0, SVG Export Plug-In . SVG Version: 6.00 Build 0)  -->
<svg version="1.1" id="Layer_1" xmlns="http://www.w3.org/2000/svg" xmlns:xlink="http://www.w3.org/1999/xlink" x="0px" y="0px"
	 viewBox="0 0 384 384" style="enable-background:new 0 0 384 384;" xml:space="preserve">
	 <style type="text/css">
	.st0{fill: #113F67;}
</style>
<g>
	<path d="M381.91,85.69c0,72.59,0,145.17,0,217.76c-0.21,0.43-0.52,0.84-0.6,1.3c-3.97,20.73-20.04,34.22-41.2,34.23
		c-98.5,0.05-197,0.05-295.5,0c-24.13-0.01-41.89-17.78-41.91-41.84C2.65,228.75,2.66,160.37,2.72,91.99c0-3.43,0.3-6.94,1.09-10.26
		c4.5-19.14,20.75-31.57,41.17-31.58c79.37-0.03,158.73-0.01,238.1-0.01c19.26,0,38.51-0.1,57.77,0.04
		c14.01,0.1,25.61,5.71,33.37,17.37C377.79,72.92,379.4,79.6,381.91,85.69z M158.88,161.23c0-1.57,0-2.78,0-3.98
		c0-9.14,0.01-18.27,0-27.41c-0.02-8.66-4.35-13.04-12.91-13.05c-13.7-0.01-27.41-0.01-41.11,0c-8.63,0.01-12.93,4.29-12.97,12.96
		c-0.04,9.13,0,18.27-0.02,27.4c0,1.29-0.13,2.58-0.21,4.07c-11.02,0-21.62-0.03-32.22,0.01c-7.45,0.03-12.15,4.54-12.19,11.9
		c-0.08,14.32-0.09,28.64,0,42.96c0.04,7.16,4.76,11.74,11.93,11.78c9.51,0.06,19.01,0.02,28.52,0.02c1.31,0,2.63,0,4.18,0
		c0,1.85,0,3.2,0,4.55c0,9.26-0.07,18.52,0.03,27.78c0.09,7.71,4.61,12.09,12.33,12.11c14.2,0.03,28.39,0.04,42.59-0.01
		c7.37-0.03,11.98-4.64,12.04-12.05c0.07-9.01,0.02-18.02,0.02-27.03c0-1.68,0-3.36,0-5.34c1.78,0,3.12,0,4.45,0
		c9.51,0,19.01,0.06,28.52-0.02c6.8-0.06,11.51-4.65,11.55-11.34c0.08-14.69,0.08-29.38,0-44.07c-0.04-6.5-4.74-11.09-11.3-11.21
		c-5.68-0.1-11.36-0.02-17.04-0.02C169.78,161.23,164.51,161.23,158.88,161.23z M281.43,139.02c14.43,0,28.86,0.01,43.3-0.01
		c7.41-0.01,12.6-4.62,12.6-11.11c0-6.49-5.19-11.1-12.6-11.1c-28.86-0.01-57.73-0.01-86.59,0.01c-1.22,0-2.49,0.03-3.67,0.31
		c-5.45,1.29-9.23,6.43-8.71,11.72c0.57,5.73,5.25,10.12,11.27,10.16C251.82,139.07,266.62,139.01,281.43,139.02z M281.33,183.46
		c14.68,0,29.36-0.02,44.04,0.01c4.26,0.01,7.71-1.55,10.07-5.13c2.36-3.6,2.58-7.43,0.47-11.2c-2.31-4.16-6-5.92-10.73-5.92
		c-28.86,0.03-57.73,0.01-86.59,0.02c-7.7,0-12.94,4.58-12.87,11.2c0.07,6.61,5.26,11.01,13.06,11.02
		C252.96,183.47,267.15,183.46,281.33,183.46z M281.67,205.67c-14.56,0-29.11-0.09-43.66,0.09c-2.46,0.03-5.18,0.75-7.3,1.98
		c-4.27,2.47-5.88,7.64-4.43,12.24c1.54,4.88,5.68,7.89,11.24,7.9c28.99,0.03,57.97,0.02,86.96,0.01c7.68,0,12.94-4.63,12.85-11.24
		c-0.09-6.5-5.25-10.97-12.73-10.98C310.29,205.66,295.98,205.67,281.67,205.67z M270.24,272.34c10.86,0,21.73,0.03,32.59-0.01
		c7.09-0.03,12.22-4.79,12.17-11.17c-0.05-6.39-5.16-11.03-12.3-11.03c-21.6-0.02-43.2-0.03-64.81,0
		c-7.08,0.01-12.22,4.79-12.17,11.17c0.05,6.38,5.17,11.02,12.31,11.04C248.76,272.37,259.5,272.34,270.24,272.34z"/>
	<path d="M69.74,205.67c0-7.49,0-14.59,0-22.21c3.37,0,6.65,0,9.93,0c7.16,0,14.31,0.01,21.47,0c8.81-0.01,13.09-4.31,13.11-13.22
		c0.03-10.23,0.01-20.47,0.01-30.96c7.43,0,14.64,0,22.32,0c0,2.59,0,5.15,0,7.7c0,7.9-0.02,15.8,0.01,23.69
		c0.03,8.5,4.27,12.77,12.69,12.79c9.25,0.02,18.51,0,27.77,0c1.22,0,2.43,0,3.87,0c0,7.46,0,14.65,0,22.21c-8.49,0-16.84,0-25.2,0
		c-2.22,0-4.44-0.01-6.66,0c-8.02,0.04-12.42,4.34-12.46,12.27c-0.05,9.25-0.01,18.51-0.01,27.77c0,1.33,0,2.65,0,4.19
		c-7.57,0-14.77,0-22.32,0c0-9.19,0-18.17,0-27.15c0-1.73,0.04-3.46-0.01-5.18c-0.24-7.44-4.74-11.85-12.21-11.88
		c-9.38-0.04-18.76-0.01-28.14-0.01C72.58,205.67,71.26,205.67,69.74,205.67z"/>
</g>
</svg>
