<?xml version="1.0" encoding="utf-8"?>
<!-- Generator: Adobe Illustrator 23.0.0, SVG Export Plug-In . SVG Version: 6.00 Build 0)  -->
<svg version="1.1" id="Layer_1" xmlns="http://www.w3.org/2000/svg" xmlns:xlink="http://www.w3.org/1999/xlink" x="0px" y="0px"
	 viewBox="0 0 409.6 409.6" style="enable-background:new 0 0 409.6 409.6;" xml:space="preserve">
<style type="text/css">
	.st0{fill: #113F67;}
</style>
<g>
	<path class="st0" d="M78.25,228.42c0-2.46,0.19-4.02-0.04-5.51c-0.63-4.09,1-6.42,4.83-8.02c10.69-4.49,21.08-9.75,31.9-13.88
		c27.69-10.57,56.17-18.09,86.02-18.29c45.49-0.31,87.56,13.38,128.12,32.66c1.21,0.58,2.26,2.72,2.35,4.2
		c0.29,5.02,0.11,10.07,0.11,16.01c13.87-7.4,27.05-14.43,40.9-21.81c0,2.52,0,4.06,0,5.6c0,24.66,0,49.32,0,73.98
		c0,9.1,0,9.1-9.25,9.16c-0.26,0-0.53,0.03-0.78,0c-2.69-0.35-3.69,0.73-3.59,3.5c0.19,5.21,0.05,10.44,0.05,15.65
		c0,3.85,0,7.69,0,12.44c5.57-3.85,10.45-7.04,15.1-10.53c2.24-1.69,3.91-1.67,6.21-0.12c5.25,3.54,10.7,6.78,16.83,10.62
		c0-10.48,0.06-20.07-0.14-29.65c-0.01-0.66-1.95-1.75-3.04-1.82c-3.71-0.23-7.44-0.09-11.28-0.09c-0.11-1.41-0.23-2.17-0.23-2.93
		c-0.01-29.49-0.04-58.97,0.1-88.46c0.01-1.39,1.31-3.33,2.56-4.07c6.36-3.72,12.91-7.12,19.84-10.87
		c-6.64-3.71-12.69-7.32-18.95-10.49c-2.9-1.46-3.84-3.3-3.62-6.39c0.26-3.63,0.44-7.32,0.01-10.92
		c-0.87-7.36-5.47-11.71-12.75-10.71c-6.18,0.85-12.28,3.16-18.07,5.62c-2.16,0.92-3.38,1.4-5.47,0.24
		c-47.18-26.25-94.4-52.42-141.56-78.7c-2.94-1.64-5.12-1.87-8.18-0.11c-55.17,31.73-110.42,63.32-165.65,94.95
		c-8.58,4.91-17.16,9.82-26.41,15.12C29.02,206.08,53.18,217.04,78.25,228.42z M91.2,285.96c37.01-13.71,74.24-24.84,113.6-24.87
		c39.36-0.03,76.6,11.05,113.4,24.7c0.15-1.07,0.32-1.69,0.32-2.3c0.02-19.44-0.04-38.87,0.08-58.31c0.02-2.69-1.45-3.51-3.44-4.47
		c-18.61-8.98-37.92-16.09-57.91-21.27c-25.6-6.64-51.49-9.41-77.88-5.57c-29.99,4.36-58.1,14.36-85.13,27.76
		c-2.35,1.17-3.1,2.59-3.08,5.14c0.12,13.83,0.06,27.65,0.06,41.48C91.2,273.97,91.2,279.68,91.2,285.96z"/>
	<path d="M78.25,228.42c-25.06-11.38-49.22-22.35-74.05-33.62c9.24-5.29,17.83-10.2,26.41-15.12
		c55.23-31.62,110.47-63.22,165.65-94.95c3.05-1.76,5.24-1.53,8.18,0.11c47.16,26.29,94.38,52.45,141.56,78.7
		c2.09,1.16,3.31,0.68,5.47-0.24c5.8-2.46,11.89-4.77,18.07-5.62c7.27-1,11.88,3.35,12.75,10.71c0.42,3.59,0.24,7.29-0.01,10.92
		c-0.22,3.09,0.72,4.92,3.62,6.39c6.27,3.17,12.31,6.78,18.95,10.49c-6.93,3.75-13.48,7.15-19.84,10.87
		c-1.25,0.73-2.55,2.68-2.56,4.07c-0.15,29.49-0.11,58.97-0.1,88.46c0,0.76,0.11,1.52,0.23,2.93c3.84,0,7.58-0.14,11.28,0.09
		c1.09,0.07,3.02,1.16,3.04,1.82c0.2,9.58,0.14,19.17,0.14,29.65c-6.13-3.84-11.58-7.09-16.83-10.62c-2.3-1.55-3.97-1.56-6.21,0.12
		c-4.65,3.49-9.53,6.68-15.1,10.53c0-4.75,0-8.59,0-12.44c0-5.22,0.14-10.44-0.05-15.65c-0.1-2.78,0.9-3.86,3.59-3.5
		c0.26,0.03,0.52,0,0.78,0c9.25-0.06,9.25-0.06,9.25-9.16c0-24.66,0-49.32,0-73.98c0-1.54,0-3.09,0-5.6
		c-13.85,7.39-27.04,14.42-40.9,21.81c0-5.94,0.18-10.99-0.11-16.01c-0.08-1.47-1.14-3.62-2.35-4.2
		c-40.56-19.28-82.63-32.97-128.12-32.66c-29.85,0.2-58.33,7.72-86.02,18.29c-10.82,4.13-21.21,9.39-31.9,13.88
		c-3.83,1.61-5.46,3.93-4.83,8.02C78.44,224.41,78.25,225.96,78.25,228.42z M368.47,207.04c5.22-0.02,9.49-4.22,9.57-9.4
		c0.08-5.26-4.45-9.68-9.8-9.58c-5.16,0.1-9.41,4.47-9.34,9.62C358.97,202.84,363.28,207.06,368.47,207.04z M371.49,177.64
		c0.5-0.23,1-0.46,1.51-0.68c-0.73-2.82-0.57-6.9-2.39-8.19c-3.09-2.19-6.36,0.68-9.82,2.83
		C364.67,173.79,368.08,175.71,371.49,177.64z"/>
	<path d="M91.2,285.96c0-6.28,0-11.99,0-17.7c0-13.83,0.06-27.66-0.06-41.48c-0.02-2.56,0.73-3.98,3.08-5.14
		c27.03-13.4,55.14-23.4,85.13-27.76c26.39-3.84,52.28-1.07,77.88,5.57c19.99,5.18,39.3,12.29,57.91,21.27
		c1.99,0.96,3.46,1.79,3.44,4.47c-0.11,19.44-0.06,38.87-0.08,58.31c0,0.62-0.16,1.23-0.32,2.3c-36.81-13.66-74.04-24.73-113.4-24.7
		C165.44,261.12,128.21,272.25,91.2,285.96z"/>
</g>
</svg>
